<svg width="221" height="131" viewBox="0 0 221 131" fill="none" xmlns="http://www.w3.org/2000/svg">
<path d="M68.8896 129.882C68.6242 129.899 68.3617 129.818 68.1522 129.655C68.062 129.591 67.9884 129.506 67.9374 129.408C67.8865 129.31 67.8597 129.202 67.8593 129.091V110.867C67.8606 110.759 67.8878 110.652 67.9387 110.556C67.9896 110.46 68.0628 110.377 68.1522 110.315C68.3602 110.147 68.6228 110.062 68.8896 110.076H73.7484C74.7725 110.062 75.7883 110.261 76.7308 110.662C77.6125 111.049 78.349 111.705 78.8348 112.536C79.3949 113.595 79.6608 114.785 79.6049 115.981V123.977C79.659 125.177 79.3933 126.37 78.8348 127.433C78.3449 128.258 77.6093 128.91 76.7308 129.297C75.7883 129.697 74.7725 129.897 73.7484 129.882H68.8896ZM70.1369 127.823H73.7484C74.2259 127.851 74.7041 127.782 75.1548 127.622C75.6055 127.462 76.0197 127.214 76.3729 126.892C76.7198 126.495 76.9831 126.032 77.1471 125.532C77.311 125.031 77.3724 124.502 77.3273 123.977V115.938C77.3727 115.415 77.3116 114.888 77.1476 114.389C76.9835 113.89 76.72 113.429 76.3729 113.034C76.0216 112.709 75.608 112.457 75.157 112.295C74.706 112.133 74.2268 112.064 73.7484 112.092H70.1369V127.823Z" fill="#7200CC"/>
<path d="M83.8563 129.882C83.5766 129.891 83.3031 129.798 83.0862 129.622C82.9958 129.559 82.9207 129.477 82.8663 129.381C82.8118 129.286 82.7795 129.179 82.7717 129.069V117.823C82.7716 117.71 82.8004 117.599 82.8555 117.5C82.9106 117.402 82.99 117.319 83.0862 117.26C83.315 117.111 83.5835 117.035 83.8563 117.043C84.126 117.032 84.3922 117.108 84.6154 117.26C84.7104 117.319 84.7882 117.403 84.8415 117.501C84.8947 117.6 84.9214 117.711 84.9191 117.823V119.102C85.1287 118.698 85.4035 118.332 85.7325 118.018C86.0844 117.678 86.4914 117.399 86.9363 117.195C87.4159 116.975 87.938 116.864 88.4655 116.87H89.3874C89.5056 116.87 89.6224 116.896 89.7292 116.947C89.8361 116.997 89.9305 117.071 90.0056 117.162C90.1728 117.371 90.2611 117.632 90.255 117.899C90.2581 118.156 90.1697 118.405 90.0056 118.603C89.9305 118.694 89.8361 118.768 89.7292 118.818C89.6224 118.869 89.5056 118.895 89.3874 118.896H88.4655C87.8808 118.898 87.3088 119.067 86.817 119.383C86.2743 119.722 85.8294 120.196 85.5264 120.759C85.168 121.423 84.9956 122.172 85.0276 122.926V129.102C85.0173 129.213 84.9816 129.321 84.9234 129.417C84.8651 129.513 84.7858 129.594 84.6913 129.654C84.4457 129.82 84.1521 129.9 83.8563 129.882Z" fill="black"/>
<path d="M97.1202 130.099C96.0425 130.116 94.9747 129.89 93.9967 129.438C93.1224 129.028 92.3736 128.392 91.8276 127.596C91.2896 126.78 91.0134 125.82 91.0359 124.844V121.994C91.0312 121.091 91.2913 120.206 91.7843 119.448C92.2787 118.678 92.9522 118.039 93.7473 117.585C94.938 116.911 96.3398 116.712 97.6713 117.027C99.0029 117.343 100.166 118.149 100.927 119.286C101.412 120.057 101.66 120.953 101.643 121.864C101.687 122.409 101.562 122.954 101.285 123.424C101.076 123.726 100.756 123.932 100.395 123.999C100.038 124.07 99.6751 124.106 99.3109 124.107H93.346V124.92C93.3247 125.377 93.4118 125.834 93.6003 126.252C93.7887 126.67 94.0732 127.037 94.4305 127.325C95.2271 127.936 96.2142 128.247 97.2178 128.202C97.7659 128.226 98.3129 128.134 98.8229 127.932C99.1605 127.778 99.4867 127.601 99.799 127.401C99.9919 127.249 100.226 127.158 100.471 127.141C100.658 127.137 100.84 127.203 100.981 127.325C101.225 127.541 101.373 127.845 101.393 128.17C101.361 128.327 101.297 128.477 101.206 128.609C101.115 128.741 100.998 128.853 100.862 128.939C100.423 129.292 99.9233 129.56 99.3869 129.73C98.6562 129.975 97.8907 130.099 97.1202 130.099ZM93.3243 122.59H98.3349C98.6666 122.626 99.0015 122.566 99.3001 122.417C99.3875 122.326 99.4533 122.216 99.4928 122.096C99.5322 121.976 99.5442 121.849 99.5278 121.723C99.5326 121.199 99.3979 120.683 99.1374 120.228C98.872 119.782 98.4992 119.41 98.0529 119.145C97.5695 118.852 97.013 118.702 96.4478 118.711C95.9093 118.707 95.3788 118.841 94.9077 119.101C94.4588 119.363 94.0852 119.736 93.8232 120.185C93.5349 120.626 93.384 121.143 93.3894 121.669L93.3243 122.59Z" fill="black"/>
<path d="M107.857 130.099C107.074 130.108 106.295 129.995 105.547 129.763C104.982 129.585 104.45 129.314 103.974 128.961C103.817 128.86 103.685 128.724 103.587 128.565C103.49 128.405 103.429 128.226 103.41 128.04C103.411 127.886 103.448 127.733 103.519 127.596C103.583 127.441 103.679 127.3 103.801 127.184C103.851 127.13 103.911 127.087 103.978 127.058C104.045 127.028 104.118 127.012 104.191 127.011C104.457 127.026 104.708 127.138 104.896 127.325C105.235 127.572 105.598 127.783 105.981 127.953C106.574 128.199 107.215 128.31 107.857 128.279C108.566 128.349 109.278 128.165 109.863 127.758C110.036 127.613 110.175 127.432 110.272 127.229C110.37 127.025 110.422 126.803 110.427 126.577C110.443 126.34 110.407 126.103 110.323 125.88C110.239 125.658 110.108 125.456 109.939 125.288C109.576 124.971 109.151 124.731 108.692 124.584C108.193 124.411 107.608 124.248 107.098 124.086C106.548 123.926 106.011 123.723 105.493 123.479C105.007 123.24 104.586 122.887 104.267 122.45C103.922 121.923 103.755 121.301 103.79 120.673C103.793 120.058 103.942 119.453 104.224 118.907C104.543 118.299 105.033 117.798 105.634 117.466C106.433 117.04 107.332 116.838 108.237 116.881C108.854 116.878 109.469 116.947 110.069 117.086C110.573 117.187 111.057 117.37 111.501 117.628C111.87 117.852 112.054 118.09 112.054 118.343C112.046 118.493 112.009 118.64 111.946 118.777C111.878 118.955 111.779 119.121 111.653 119.264C111.592 119.333 111.517 119.388 111.433 119.426C111.348 119.463 111.257 119.482 111.165 119.481C110.949 119.461 110.741 119.391 110.558 119.275C110.247 119.128 109.928 118.998 109.603 118.885C109.169 118.745 108.714 118.679 108.258 118.69C107.762 118.669 107.269 118.777 106.827 119.004C106.501 119.173 106.227 119.428 106.035 119.741C105.881 119.996 105.799 120.288 105.796 120.586C105.781 120.792 105.816 120.998 105.899 121.187C105.983 121.376 106.111 121.542 106.274 121.669C106.646 121.95 107.07 122.156 107.521 122.276L109.126 122.742C109.685 122.893 110.225 123.111 110.731 123.392C111.234 123.667 111.663 124.062 111.978 124.541C112.33 125.128 112.5 125.807 112.466 126.491C112.486 126.994 112.388 127.494 112.181 127.953C111.974 128.412 111.663 128.816 111.273 129.134C110.286 129.852 109.074 130.194 107.857 130.099Z" fill="black"/>
<path d="M118.561 130.099C117.782 130.109 117.006 129.995 116.262 129.763C115.696 129.588 115.164 129.317 114.69 128.961C114.531 128.86 114.397 128.725 114.298 128.566C114.198 128.407 114.136 128.227 114.115 128.04C114.121 127.886 114.158 127.735 114.223 127.596C114.295 127.442 114.395 127.303 114.516 127.184C114.564 127.128 114.624 127.084 114.692 127.054C114.759 127.024 114.833 127.009 114.906 127.011C115.172 127.026 115.423 127.138 115.611 127.325C115.948 127.575 116.312 127.786 116.696 127.954C117.286 128.2 117.923 128.311 118.561 128.279C119.271 128.351 119.983 128.167 120.568 127.759C120.742 127.613 120.883 127.433 120.982 127.23C121.081 127.026 121.136 126.804 121.143 126.578C121.158 126.34 121.122 126.103 121.038 125.88C120.954 125.658 120.823 125.456 120.655 125.288C120.29 124.973 119.866 124.734 119.407 124.584C118.898 124.411 118.323 124.248 117.802 124.086C117.256 123.926 116.722 123.723 116.208 123.479C115.711 123.243 115.282 122.885 114.961 122.439C114.621 121.91 114.454 121.289 114.484 120.662C114.492 120.048 114.64 119.444 114.917 118.896C115.24 118.291 115.729 117.791 116.327 117.455C117.126 117.029 118.026 116.827 118.93 116.87C119.547 116.866 120.162 116.935 120.763 117.076C121.27 117.178 121.757 117.361 122.205 117.617C122.574 117.841 122.759 118.08 122.759 118.332C122.745 118.482 122.708 118.628 122.65 118.766C122.579 118.945 122.476 119.11 122.346 119.253C122.287 119.324 122.212 119.381 122.128 119.418C122.043 119.456 121.951 119.474 121.858 119.47C121.643 119.449 121.435 119.379 121.251 119.264C120.945 119.115 120.63 118.985 120.307 118.874C119.873 118.736 119.419 118.67 118.963 118.679C118.463 118.659 117.966 118.767 117.52 118.993C117.199 119.166 116.93 119.42 116.739 119.73C116.583 119.985 116.497 120.276 116.49 120.575C116.477 120.781 116.514 120.986 116.597 121.175C116.68 121.363 116.807 121.529 116.967 121.659C117.341 121.937 117.764 122.143 118.214 122.265L119.83 122.731C120.386 122.882 120.922 123.1 121.425 123.381C121.93 123.654 122.359 124.049 122.672 124.53C123.024 125.118 123.193 125.796 123.16 126.48C123.179 126.983 123.082 127.483 122.875 127.942C122.668 128.401 122.357 128.805 121.967 129.124C120.985 129.845 119.777 130.191 118.561 130.099Z" fill="black"/>
<path d="M132.877 129.882C132.603 129.887 132.332 129.816 132.096 129.676C131.985 129.62 131.892 129.533 131.828 129.425C131.765 129.318 131.734 129.194 131.738 129.069V125.331H124.96C124.845 125.338 124.73 125.319 124.623 125.276C124.516 125.233 124.42 125.167 124.342 125.082C124.188 124.902 124.11 124.669 124.125 124.432C124.12 124.342 124.12 124.252 124.125 124.161C124.145 124.076 124.182 123.995 124.234 123.923L130.903 110.726C131.012 110.519 131.178 110.346 131.381 110.228C131.55 110.134 131.74 110.082 131.934 110.076C132.102 110.081 132.267 110.118 132.422 110.185C132.589 110.265 132.743 110.371 132.877 110.499C132.94 110.562 132.989 110.636 133.022 110.718C133.056 110.8 133.073 110.887 133.072 110.976C133.068 111.109 133.031 111.239 132.964 111.355L126.999 123.165H131.717V118.614C131.711 118.491 131.742 118.368 131.806 118.262C131.869 118.156 131.963 118.071 132.075 118.018C132.314 117.887 132.583 117.819 132.856 117.823C133.132 117.819 133.404 117.887 133.647 118.018C133.756 118.074 133.847 118.16 133.908 118.265C133.97 118.371 134 118.492 133.994 118.614V123.165H135.404C135.527 123.158 135.649 123.185 135.756 123.245C135.864 123.304 135.952 123.393 136.012 123.5C136.15 123.725 136.221 123.984 136.218 124.248C136.219 124.514 136.139 124.775 135.99 124.996C135.928 125.096 135.842 125.18 135.74 125.238C135.638 125.297 135.522 125.329 135.404 125.331H133.994V129.069C133.999 129.193 133.969 129.315 133.908 129.422C133.846 129.53 133.756 129.618 133.647 129.676C133.414 129.812 133.148 129.883 132.877 129.882Z" fill="black"/>
<path d="M144.243 130.023C143.212 130.04 142.188 129.841 141.239 129.438C140.355 129.054 139.615 128.402 139.124 127.574C138.545 126.517 138.271 125.321 138.332 124.118V110.867C138.328 110.746 138.356 110.627 138.416 110.521C138.475 110.416 138.563 110.329 138.669 110.271C138.914 110.137 139.191 110.07 139.471 110.076C139.747 110.072 140.02 110.14 140.263 110.271C140.372 110.327 140.462 110.413 140.524 110.518C140.585 110.624 140.615 110.745 140.61 110.867V124.139C140.565 124.664 140.626 125.193 140.79 125.694C140.954 126.194 141.218 126.657 141.564 127.054C142.328 127.65 143.269 127.975 144.238 127.975C145.207 127.975 146.148 127.65 146.911 127.054C147.262 126.659 147.529 126.197 147.695 125.696C147.861 125.195 147.922 124.665 147.876 124.139V110.867C147.871 110.744 147.902 110.621 147.965 110.515C148.029 110.409 148.123 110.324 148.234 110.271C148.473 110.14 148.742 110.072 149.015 110.076C149.291 110.072 149.564 110.14 149.807 110.271C149.916 110.327 150.006 110.413 150.068 110.518C150.129 110.624 150.159 110.745 150.154 110.867V124.139C150.212 125.341 149.942 126.535 149.373 127.596C148.864 128.429 148.105 129.081 147.204 129.459C146.266 129.846 145.258 130.038 144.243 130.023Z" fill="#7200CC"/>
<path d="M10.943 85.1672V9.88859V0.007453H4.94548C3.66253 -0.0592956 2.39657 0.323948 1.36651 1.09091C0.943075 1.39969 0.598605 1.80399 0.361144 2.27091C0.123684 2.73782 -5.50683e-05 3.25416 1.83847e-08 3.77789V91.2779C0.0033446 91.798 0.128712 92.31 0.366035 92.7729C0.603357 93.2358 0.946023 93.6366 1.36651 93.9432C2.39657 94.7102 3.66253 95.0934 4.94548 95.0267H10.943V85.1672Z" fill="black"/>
<path d="M52.3831 11.7741C50.0622 7.78777 46.5288 4.64506 42.2969 2.80309C37.772 0.884906 32.8958 -0.0672282 27.981 0.00777246H16.268V9.8889H27.981C33.3603 9.8889 37.5683 11.3841 40.605 14.3744C43.6417 17.3648 45.1601 22.0236 45.1601 28.351V66.7054C45.1601 73.0328 43.6417 77.6917 40.605 80.682C37.5683 83.6724 33.3603 85.1675 27.981 85.1675H16.268V95.0487H27.981C32.8958 95.1237 37.772 94.1715 42.2969 92.2533C46.5288 90.4114 50.0622 87.2687 52.3831 83.2823C54.8558 79.1652 56.0922 73.6395 56.0922 66.7054V28.351C56.0922 21.4169 54.8558 15.8913 52.3831 11.7741Z" fill="black"/>
<path d="M189.989 85.8286C186.184 85.6226 182.572 84.0889 179.783 81.4948C176.747 78.5044 175.228 73.8456 175.228 67.5182V3.80004C175.254 3.20937 175.107 2.62398 174.805 2.11581C174.502 1.60764 174.058 1.19886 173.526 0.93971C172.369 0.318863 171.075 -0.00155 169.762 0.00793635C168.427 -0.0169522 167.108 0.304061 165.934 0.93971C165.417 1.21074 164.989 1.62439 164.7 2.13146C164.412 2.63853 164.276 3.21769 164.307 3.80004V67.5073C164.307 74.4415 165.565 79.9671 168.081 84.0843C170.441 88.0633 173.991 91.2013 178.233 93.0553C181.963 94.6479 185.948 95.5651 190 95.7639L189.989 85.8286Z" fill="black"/>
<path d="M219.347 0.939369C218.174 0.334129 216.872 0.0183105 215.551 0.0183105C214.231 0.0183105 212.929 0.334129 211.756 0.939369C211.226 1.20009 210.783 1.60954 210.483 2.11759C210.182 2.62563 210.037 3.2102 210.064 3.7997V67.507C210.064 73.8344 208.524 78.4933 205.444 81.4836C202.665 84.053 199.082 85.5841 195.303 85.8174V95.7527C199.332 95.5389 203.293 94.6222 207.005 93.0441C211.272 91.2047 214.848 88.0648 217.222 84.0731C219.738 79.9559 220.996 74.4303 220.996 67.4962V3.7997C221.027 3.21484 220.887 2.63353 220.595 2.12597C220.302 1.61841 219.869 1.20629 219.347 0.939369Z" fill="black"/>
<path d="M101.502 50.0096L123.55 6.36789C123.856 5.80689 124.034 5.18533 124.071 4.54768C124.071 4.12207 123.985 3.7008 123.817 3.3096C123.65 2.9184 123.404 2.56549 123.095 2.27242C122.471 1.64344 121.736 1.13635 120.926 0.777249C120.136 0.404431 119.269 0.227478 118.396 0.261432C117.524 0.295385 116.673 0.53924 115.915 0.972271C114.928 1.52262 114.133 2.36207 113.638 3.37755L92.6627 44.9065L101.502 50.0096Z" fill="#7200CC"/>
<path d="M138.191 64.6793C137.897 64.1686 137.469 63.7476 136.953 63.4613C136.437 63.175 135.853 63.0343 135.263 63.0541H128.496V41.1791C128.523 40.5896 128.377 40.005 128.077 39.497C127.776 38.9889 127.334 38.5795 126.804 38.3188C125.63 37.7135 124.329 37.3977 123.008 37.3977C121.687 37.3977 120.386 37.7135 119.212 38.3188C118.69 38.5857 118.257 38.9978 117.964 39.5054C117.672 40.0129 117.533 40.5942 117.564 41.1791V63.0541H94.9185L99.094 54.7873L90.2442 49.6842L81.6438 66.6945C81.3795 67.0376 81.2011 67.4388 81.1232 67.8647C81.0317 68.2919 80.988 68.7279 80.9931 69.1648C80.943 70.305 81.331 71.4213 82.0776 72.2852C82.4596 72.6883 82.9259 73.0022 83.4434 73.2045C83.9608 73.4068 84.5166 73.4924 85.071 73.4553H117.607V91.3974C117.583 91.9949 117.73 92.5868 118.029 93.1045C118.329 93.6223 118.769 94.0447 119.299 94.3227C120.459 94.9698 121.766 95.3096 123.095 95.3096C124.424 95.3096 125.73 94.9698 126.891 94.3227C127.421 94.0447 127.861 93.6223 128.16 93.1045C128.46 92.5868 128.606 91.9949 128.583 91.3974V73.4553H135.35C135.918 73.4519 136.475 73.3001 136.966 73.015C137.457 72.7299 137.864 72.3214 138.148 71.8301C138.863 70.7751 139.241 69.5286 139.233 68.2547C139.225 66.9895 138.864 65.7514 138.191 64.6793Z" fill="#7200CC"/>
</svg>
