<svg width="460" height="122" viewBox="0 0 460 122" fill="none" xmlns="http://www.w3.org/2000/svg">
<path d="M69.7056 98.8859C67.5593 105.382 80.8193 118.808 104 120.54C132.976 122.705 188.537 97.3391 210 98.8859C231.463 100.433 292.492 123.633 338.639 120.54C384.785 117.446 395.351 79.7138 426 91.1523" stroke="#313131" stroke-width="2" stroke-linecap="round" stroke-linejoin="round"/>
<path d="M96.1139 79.5763C111.509 73.221 123.705 63.7334 125.164 46.6551C126.763 27.947 114.468 11.616 97.7038 10.1787C80.9392 8.74145 66.0528 22.7422 64.4543 41.4503C63.0853 57.472 72.6779 68.0626 85.1482 76.9624C82.5218 78.4196 80.0688 79.9993 79.5533 81.0053C78.4245 83.2082 80.3014 86.0044 82.2065 86.9003C83.7412 87.622 86.442 86.9995 88.376 86.5538C88.8426 86.4463 89.2646 86.349 89.6148 86.2834C90.7183 86.0767 92.3626 86.7569 93.9317 87.4059C94.9243 87.8164 95.8869 88.2146 96.6633 88.3678C98.6671 88.7634 100.231 86.9929 100.591 84.2917C100.773 82.9195 98.5245 81.086 96.1139 79.5763Z" fill="#E58F91"/>
<path d="M59.0752 93.2861C64.2358 80.3345 65.6604 67.6951 56.2935 57.6651C46.0328 46.678 29.1059 45.5848 18.4864 55.2234C7.86683 64.862 7.576 81.5824 17.8368 92.5695C26.6242 101.979 38.544 101.683 51.1277 98.6964C50.4704 101.105 49.9874 103.472 50.2891 104.329C50.9497 106.207 53.7151 106.536 55.3601 105.832C56.6853 105.265 57.8852 103.256 58.7445 101.817C58.9518 101.47 59.1393 101.156 59.304 100.904C59.8227 100.108 61.1868 99.4509 62.4885 98.8237C63.312 98.4268 64.1105 98.042 64.6542 97.642C66.0574 96.6094 65.9087 94.6928 64.5022 93.0263C63.7878 92.1799 61.3817 92.5963 59.0752 93.2861Z" fill="#E7CF70"/>
<path d="M72.3596 90.5348C87.1864 76.2988 97.0267 59.6862 91.3814 38.5986C85.1974 15.4985 64.196 1.22238 44.4735 6.71195C24.7511 12.2015 13.776 35.378 19.9601 58.4781C25.2562 78.2611 40.7214 86.8224 58.743 92.1202C56.3731 94.9958 54.2533 97.9434 54.0963 99.3704C53.7525 102.495 57.0883 105.038 59.6429 105.291C61.701 105.496 64.5129 103.588 66.5263 102.222C67.0122 101.893 67.4515 101.595 67.8226 101.366C68.9918 100.643 71.1569 100.751 73.223 100.853C74.5301 100.918 75.7975 100.981 76.7481 100.831C79.2012 100.443 80.226 97.6489 79.48 94.258C79.1011 92.5356 75.7532 91.3064 72.3596 90.5348Z" fill="#97D4ED"/>
<path d="M83.0049 96.3235C92.6327 95.5889 101.047 92.5598 104.871 83.4356C109.061 73.4407 105.155 62.2631 96.1481 58.4699C87.141 54.6766 76.4431 59.7041 72.2537 69.699C68.6659 78.2588 72.0933 85.7975 77.4092 92.9225C75.7008 93.2528 74.0665 93.6815 73.604 94.1421C72.5911 95.1505 73.1337 97.0234 74.0278 97.857C74.7481 98.5286 76.3501 98.6704 77.4972 98.7719C77.774 98.7964 78.0243 98.8185 78.2293 98.8452C78.8754 98.9293 79.6636 99.5977 80.4157 100.235C80.8915 100.639 81.3529 101.03 81.7547 101.253C82.7917 101.83 83.9686 101.137 84.6447 99.717C84.9881 98.9956 84.0698 97.5851 83.0049 96.3235Z" fill="#B0D066"/>
<path d="M54 95.2715C56.8256 93.3503 63.6369 89.4619 68.2769 89.2775C72.9169 89.0931 80.0256 93.1966 83 95.2715" stroke="black" stroke-opacity="0.35" stroke-width="2" stroke-linecap="round" stroke-linejoin="round"/>
<path d="M147.021 69.255C146.636 69.255 146.171 69.2493 145.627 69.238C145.094 69.2267 144.55 69.204 143.995 69.17C143.451 69.1473 142.969 69.1077 142.55 69.051C142.527 68.2917 142.505 67.3227 142.482 66.144C142.459 64.9653 142.437 63.7187 142.414 62.404C142.403 61.0893 142.397 59.854 142.397 58.698C142.397 56.9527 142.408 55.06 142.431 53.02C142.465 50.98 142.499 48.8493 142.533 46.628C142.703 46.6167 142.969 46.611 143.332 46.611C143.706 46.5997 144.12 46.5883 144.573 46.577C145.026 46.5543 145.468 46.543 145.899 46.543C146.341 46.5317 146.709 46.526 147.004 46.526C147.061 47.7953 147.112 49.178 147.157 50.674C147.202 52.17 147.236 53.6717 147.259 55.179C147.282 56.6863 147.293 58.1143 147.293 59.463C147.293 60.109 147.287 60.8117 147.276 61.571C147.276 62.319 147.27 63.0783 147.259 63.849C147.248 64.6197 147.231 65.362 147.208 66.076C147.185 66.7787 147.157 67.4077 147.123 67.963C147.089 68.5183 147.055 68.949 147.021 69.255ZM178.7 64.869C178.133 65.617 177.442 66.3197 176.626 66.977C175.81 67.623 174.88 68.1557 173.838 68.575C172.795 68.983 171.656 69.187 170.421 69.187C168.891 69.187 167.531 68.9037 166.341 68.337C165.162 67.759 164.17 66.9543 163.366 65.923C162.561 64.8803 161.949 63.662 161.53 62.268C161.11 60.8627 160.901 59.3383 160.901 57.695C160.901 55.553 161.263 53.6377 161.989 51.949C162.725 50.249 163.791 48.9117 165.185 47.937C166.59 46.951 168.307 46.458 170.336 46.458C172.002 46.458 173.543 46.815 174.96 47.529C176.376 48.243 177.476 49.2857 178.258 50.657C177.986 50.9517 177.629 51.286 177.187 51.66C176.745 52.0227 176.291 52.374 175.827 52.714C175.373 53.0427 174.982 53.309 174.654 53.513C174.597 53.377 174.472 53.156 174.28 52.85C174.098 52.5327 173.838 52.2097 173.498 51.881C173.169 51.541 172.744 51.252 172.223 51.014C171.713 50.776 171.101 50.657 170.387 50.657C169.775 50.657 169.202 50.8043 168.67 51.099C168.148 51.3937 167.689 51.83 167.293 52.408C166.907 52.986 166.601 53.6943 166.375 54.533C166.159 55.3603 166.052 56.3123 166.052 57.389C166.052 58.3523 166.148 59.259 166.341 60.109C166.533 60.959 166.811 61.707 167.174 62.353C167.548 62.999 168.001 63.5033 168.534 63.866C169.066 64.2173 169.667 64.393 170.336 64.393C171.061 64.393 171.73 64.2513 172.342 63.968C172.954 63.6847 173.509 63.3277 174.008 62.897C174.506 62.455 174.948 62.0017 175.334 61.537C175.696 61.775 176.099 62.0923 176.541 62.489C176.983 62.8743 177.396 63.2823 177.782 63.713C178.178 64.1323 178.484 64.5177 178.7 64.869ZM189.745 69.425C186.753 69.425 184.515 68.6203 183.03 67.011C181.545 65.3903 180.803 63.05 180.803 59.99C180.803 57.9953 181.183 56.3237 181.942 54.975C182.713 53.6263 183.778 52.612 185.138 51.932C186.509 51.2407 188.09 50.895 189.881 50.895C191.74 50.895 193.275 51.32 194.488 52.17C195.712 53.02 196.624 54.1987 197.225 55.706C197.837 57.2133 198.143 58.9587 198.143 60.942C198.143 62.6533 197.814 64.1437 197.157 65.413C196.5 66.6823 195.548 67.6683 194.301 68.371C193.054 69.0737 191.536 69.425 189.745 69.425ZM189.575 65.158C190.3 65.158 190.929 65.0333 191.462 64.784C192.006 64.5233 192.459 64.1663 192.822 63.713C193.185 63.2483 193.451 62.7157 193.621 62.115C193.802 61.5143 193.893 60.874 193.893 60.194C193.893 59.0607 193.734 58.0577 193.417 57.185C193.1 56.3123 192.624 55.6323 191.989 55.145C191.366 54.6463 190.584 54.397 189.643 54.397C188.668 54.397 187.858 54.6407 187.212 55.128C186.577 55.6153 186.107 56.267 185.801 57.083C185.495 57.899 185.342 58.7887 185.342 59.752C185.342 61.3273 185.699 62.625 186.413 63.645C187.138 64.6537 188.192 65.158 189.575 65.158ZM210.313 68.099C210.018 68.4503 209.468 68.796 208.664 69.136C207.859 69.4873 206.947 69.663 205.927 69.663C204.567 69.663 203.541 69.3343 202.85 68.677C202.17 68.0083 201.711 67.079 201.473 65.889C201.246 64.699 201.133 63.3163 201.133 61.741C201.133 60.5963 201.144 59.412 201.167 58.188C201.189 56.9527 201.218 55.7173 201.252 54.482C201.297 53.2467 201.342 52.0453 201.388 50.878C201.433 49.6993 201.478 48.5887 201.524 47.546C201.58 46.492 201.631 45.5457 201.677 44.707C202.391 44.6503 203.048 44.622 203.649 44.622C204.045 44.622 204.436 44.6333 204.822 44.656C205.207 44.6787 205.621 44.7127 206.063 44.758C206.006 45.6873 205.944 46.7413 205.876 47.92C205.819 49.0873 205.757 50.2943 205.689 51.541C205.632 52.7877 205.575 54.0117 205.519 55.213C205.462 56.403 205.417 57.4967 205.383 58.494C205.36 59.4913 205.349 60.3073 205.349 60.942C205.349 61.7127 205.383 62.4437 205.451 63.135C205.53 63.815 205.694 64.3703 205.944 64.801C206.193 65.2317 206.567 65.447 207.066 65.447C207.474 65.447 207.802 65.3563 208.052 65.175C208.301 64.9823 208.505 64.733 208.664 64.427C208.743 64.5517 208.862 64.7897 209.021 65.141C209.179 65.4923 209.349 65.8777 209.531 66.297C209.723 66.7163 209.893 67.096 210.041 67.436C210.188 67.776 210.279 67.997 210.313 68.099ZM220.624 69.425C217.632 69.425 215.393 68.6203 213.909 67.011C212.424 65.3903 211.682 63.05 211.682 59.99C211.682 57.9953 212.061 56.3237 212.821 54.975C213.591 53.6263 214.657 52.612 216.017 51.932C217.388 51.2407 218.969 50.895 220.76 50.895C222.618 50.895 224.154 51.32 225.367 52.17C226.591 53.02 227.503 54.1987 228.104 55.706C228.716 57.2133 229.022 58.9587 229.022 60.942C229.022 62.6533 228.693 64.1437 228.036 65.413C227.378 66.6823 226.426 67.6683 225.18 68.371C223.933 69.0737 222.414 69.425 220.624 69.425ZM220.454 65.158C221.179 65.158 221.808 65.0333 222.341 64.784C222.885 64.5233 223.338 64.1663 223.701 63.713C224.063 63.2483 224.33 62.7157 224.5 62.115C224.681 61.5143 224.772 60.874 224.772 60.194C224.772 59.0607 224.613 58.0577 224.296 57.185C223.978 56.3123 223.502 55.6323 222.868 55.145C222.244 54.6463 221.462 54.397 220.522 54.397C219.547 54.397 218.737 54.6407 218.091 55.128C217.456 55.6153 216.986 56.267 216.68 57.083C216.374 57.899 216.221 58.7887 216.221 59.752C216.221 61.3273 216.578 62.625 217.292 63.645C218.017 64.6537 219.071 65.158 220.454 65.158ZM236.007 53.819C236.29 53.2863 236.721 52.7877 237.299 52.323C237.877 51.8583 238.545 51.4787 239.305 51.184C240.075 50.8893 240.88 50.742 241.719 50.742C242.24 50.742 242.761 50.793 243.283 50.895C243.815 50.997 244.212 51.133 244.473 51.303L243.538 56.046C243.288 55.944 242.96 55.8307 242.552 55.706C242.144 55.5813 241.668 55.519 241.124 55.519C240.546 55.519 239.979 55.6153 239.424 55.808C238.88 56.0007 238.375 56.2727 237.911 56.624C237.446 56.9753 237.049 57.389 236.721 57.865C236.845 58.579 236.976 59.4687 237.112 60.534C237.259 61.588 237.395 62.676 237.52 63.798C237.644 64.9087 237.746 65.923 237.826 66.841C237.916 67.759 237.962 68.439 237.962 68.881C237.259 68.9717 236.443 69.0283 235.514 69.051C234.596 69.0737 233.717 69.0793 232.879 69.068C232.879 68.082 232.85 66.9883 232.794 65.787C232.748 64.5857 232.68 63.3447 232.59 62.064C232.499 60.772 232.386 59.497 232.25 58.239C232.114 56.9697 231.955 55.774 231.774 54.652C231.604 53.53 231.417 52.544 231.213 51.694C231.677 51.558 232.193 51.4277 232.76 51.303C233.338 51.1783 233.865 51.0763 234.341 50.997C234.817 50.9177 235.123 50.8723 235.259 50.861C235.395 51.201 235.548 51.6827 235.718 52.306C235.888 52.918 235.984 53.4223 236.007 53.819ZM252.274 68.983C252.093 68.9943 251.764 69.017 251.288 69.051C250.812 69.085 250.319 69.102 249.809 69.102C249.401 69.102 248.999 69.0907 248.602 69.068C248.205 69.0453 247.82 69.0113 247.446 68.966C247.503 68.6713 247.565 68.065 247.633 67.147C247.701 66.229 247.769 65.1467 247.837 63.9C247.916 62.6533 247.99 61.367 248.058 60.041C248.126 58.7037 248.177 57.457 248.211 56.301C248.256 55.1337 248.279 54.2043 248.279 53.513C248.472 53.5017 248.761 53.4847 249.146 53.462C249.531 53.4393 249.951 53.4223 250.404 53.411C250.857 53.3883 251.288 53.3713 251.696 53.36C252.104 53.3487 252.421 53.343 252.648 53.343C252.705 53.683 252.744 54.2157 252.767 54.941C252.801 55.6663 252.818 56.4823 252.818 57.389C252.818 58.4317 252.801 59.548 252.767 60.738C252.744 61.9167 252.71 63.067 252.665 64.189C252.62 65.311 252.557 66.3027 252.478 67.164C252.41 68.014 252.342 68.6203 252.274 68.983ZM250.659 50.997C249.718 50.997 248.942 50.7193 248.33 50.164C247.718 49.6087 247.412 48.889 247.412 48.005C247.412 47.3817 247.559 46.8547 247.854 46.424C248.149 45.982 248.534 45.6477 249.01 45.421C249.486 45.183 249.99 45.064 250.523 45.064C251.384 45.064 252.087 45.353 252.631 45.931C253.186 46.4977 253.464 47.223 253.464 48.107C253.464 48.9117 253.198 49.5973 252.665 50.164C252.144 50.7193 251.475 50.997 250.659 50.997ZM279.892 68.949C279.881 68.779 279.87 68.5297 279.858 68.201C279.847 67.8723 279.836 67.5437 279.824 67.215C279.824 66.875 279.824 66.6143 279.824 66.433C279.711 66.603 279.513 66.8297 279.229 67.113C278.946 67.3963 278.566 67.6797 278.09 67.963C277.626 68.2463 277.053 68.49 276.373 68.694C275.693 68.8867 274.894 68.983 273.976 68.983C272.526 68.983 271.273 68.643 270.219 67.963C269.177 67.2717 268.378 66.331 267.822 65.141C267.267 63.951 266.989 62.5967 266.989 61.078C266.989 59.6047 267.267 58.2333 267.822 56.964C268.389 55.6947 269.233 54.669 270.355 53.887C271.489 53.0937 272.905 52.697 274.605 52.697C275.512 52.697 276.328 52.799 277.053 53.003C277.79 53.207 278.408 53.4563 278.906 53.751C279.416 54.0457 279.773 54.3347 279.977 54.618C280.011 54.0287 280.051 53.343 280.096 52.561C280.153 51.779 280.215 50.963 280.283 50.113C280.351 49.263 280.414 48.4527 280.47 47.682C280.538 46.9113 280.601 46.2483 280.657 45.693C280.714 45.1263 280.754 44.741 280.776 44.537C281.366 44.537 282.023 44.571 282.748 44.639C283.485 44.6957 284.131 44.7977 284.686 44.945C284.482 47.5517 284.324 50.1583 284.21 52.765C284.108 55.3603 284.035 58.0067 283.989 60.704C283.955 63.39 283.938 66.1837 283.938 69.085C283.7 69.085 283.315 69.0793 282.782 69.068C282.261 69.0567 281.723 69.0397 281.167 69.017C280.623 68.9943 280.198 68.9717 279.892 68.949ZM275.2 64.648C275.79 64.648 276.322 64.5687 276.798 64.41C277.286 64.2513 277.716 64.053 278.09 63.815C278.476 63.5657 278.804 63.3107 279.076 63.05C279.348 62.778 279.564 62.5287 279.722 62.302C279.722 62.064 279.722 61.7523 279.722 61.367C279.722 60.9817 279.722 60.5793 279.722 60.16C279.734 59.7407 279.739 59.3497 279.739 58.987C279.751 58.6243 279.762 58.3467 279.773 58.154C279.524 57.916 279.161 57.678 278.685 57.44C278.221 57.1907 277.694 56.9867 277.104 56.828C276.526 56.658 275.926 56.573 275.302 56.573C274.022 56.573 273.03 56.9527 272.327 57.712C271.636 58.46 271.29 59.4573 271.29 60.704C271.29 61.996 271.625 62.9763 272.293 63.645C272.973 64.3137 273.942 64.648 275.2 64.648ZM293.413 68.983C293.231 68.9943 292.903 69.017 292.427 69.051C291.951 69.085 291.458 69.102 290.948 69.102C290.54 69.102 290.137 69.0907 289.741 69.068C289.344 69.0453 288.959 69.0113 288.585 68.966C288.641 68.6713 288.704 68.065 288.772 67.147C288.84 66.229 288.908 65.1467 288.976 63.9C289.055 62.6533 289.129 61.367 289.197 60.041C289.265 58.7037 289.316 57.457 289.35 56.301C289.395 55.1337 289.418 54.2043 289.418 53.513C289.61 53.5017 289.899 53.4847 290.285 53.462C290.67 53.4393 291.089 53.4223 291.543 53.411C291.996 53.3883 292.427 53.3713 292.835 53.36C293.243 53.3487 293.56 53.343 293.787 53.343C293.843 53.683 293.883 54.2157 293.906 54.941C293.94 55.6663 293.957 56.4823 293.957 57.389C293.957 58.4317 293.94 59.548 293.906 60.738C293.883 61.9167 293.849 63.067 293.804 64.189C293.758 65.311 293.696 66.3027 293.617 67.164C293.549 68.014 293.481 68.6203 293.413 68.983ZM291.798 50.997C290.857 50.997 290.081 50.7193 289.469 50.164C288.857 49.6087 288.551 48.889 288.551 48.005C288.551 47.3817 288.698 46.8547 288.993 46.424C289.287 45.982 289.673 45.6477 290.149 45.421C290.625 45.183 291.129 45.064 291.662 45.064C292.523 45.064 293.226 45.353 293.77 45.931C294.325 46.4977 294.603 47.223 294.603 48.107C294.603 48.9117 294.336 49.5973 293.804 50.164C293.282 50.7193 292.614 50.997 291.798 50.997ZM309.216 69.068C309.216 68.116 309.222 66.9487 309.233 65.566C309.244 64.1833 309.261 62.693 309.284 61.095C309.318 59.497 309.352 57.882 309.386 56.25C309.42 54.618 309.46 53.071 309.505 51.609C309.55 50.147 309.601 48.8663 309.658 47.767C310.145 47.7217 310.712 47.6877 311.358 47.665C312.015 47.631 312.661 47.6083 313.296 47.597C313.931 47.5743 314.469 47.563 314.911 47.563C315.353 47.5517 315.602 47.546 315.659 47.546C315.682 47.5913 315.767 47.8803 315.914 48.413C316.073 48.9457 316.277 49.637 316.526 50.487C316.775 51.337 317.042 52.272 317.325 53.292C317.62 54.312 317.914 55.3547 318.209 56.42C318.504 57.474 318.776 58.4713 319.025 59.412C319.286 60.3527 319.501 61.163 319.671 61.843C319.841 62.523 319.943 62.9877 319.977 63.237L319.433 63.305C319.558 62.965 319.739 62.4097 319.977 61.639C320.226 60.857 320.51 59.956 320.827 58.936C321.144 57.9047 321.467 56.8223 321.796 55.689C322.136 54.5557 322.459 53.4563 322.765 52.391C323.082 51.3143 323.354 50.3567 323.581 49.518C323.808 48.668 323.966 48.022 324.057 47.58C324.488 47.58 325.032 47.5913 325.689 47.614C326.346 47.6367 327.009 47.6707 327.678 47.716C328.347 47.75 328.896 47.8067 329.327 47.886C329.554 48.9287 329.712 50.283 329.803 51.949C329.894 53.6037 329.939 55.3603 329.939 57.219C329.939 58.6583 329.922 60.1203 329.888 61.605C329.854 63.0783 329.803 64.461 329.735 65.753C329.678 67.0337 329.616 68.1047 329.548 68.966C329.061 68.966 328.528 68.9603 327.95 68.949C327.383 68.9263 326.839 68.898 326.318 68.864C325.808 68.8187 325.4 68.7903 325.094 68.779C325.162 67.9063 325.219 66.8467 325.264 65.6C325.321 64.342 325.366 63.05 325.4 61.724C325.423 60.908 325.44 60.075 325.451 59.225C325.462 58.375 325.474 57.5987 325.485 56.896C325.496 56.182 325.502 55.638 325.502 55.264C325.377 55.74 325.19 56.369 324.941 57.151C324.703 57.933 324.431 58.7943 324.125 59.735C323.819 60.6757 323.496 61.6277 323.156 62.591C322.827 63.5543 322.51 64.4667 322.204 65.328C321.909 66.1893 321.643 66.9317 321.405 67.555C321.178 68.167 321.008 68.5863 320.895 68.813C320.748 68.8243 320.527 68.8357 320.232 68.847C319.949 68.847 319.728 68.847 319.569 68.847C319.286 68.847 318.997 68.8357 318.702 68.813C318.407 68.779 318.084 68.745 317.733 68.711C317.71 68.575 317.637 68.2633 317.512 67.776C317.387 67.2887 317.229 66.6767 317.036 65.94C316.843 65.2033 316.634 64.393 316.407 63.509C316.18 62.625 315.948 61.724 315.71 60.806C315.472 59.8767 315.234 58.9813 314.996 58.12C314.769 57.2587 314.56 56.4823 314.367 55.791C314.186 55.0883 314.033 54.533 313.908 54.125C313.908 55.213 313.908 56.3973 313.908 57.678C313.919 58.9473 313.925 60.211 313.925 61.469C313.925 62.727 313.925 63.8887 313.925 64.954C313.936 66.0193 313.942 66.9147 313.942 67.64C313.942 68.354 313.942 68.8017 313.942 68.983C313.591 68.9943 313.143 69.0057 312.599 69.017C312.055 69.0283 311.488 69.0397 310.899 69.051C310.31 69.0623 309.749 69.068 309.216 69.068ZM340.67 69.306C339.265 69.306 337.984 69.119 336.828 68.745C335.672 68.371 334.748 67.759 334.057 66.909C333.377 66.0477 333.037 64.9143 333.037 63.509C333.037 62.1037 333.428 60.9703 334.21 60.109C335.003 59.2363 336.052 58.6017 337.355 58.205C338.658 57.797 340.086 57.593 341.639 57.593C342.274 57.593 342.891 57.6383 343.492 57.729C344.093 57.8197 344.62 57.933 345.073 58.069C345.526 58.1937 345.844 58.3127 346.025 58.426C346.002 58.0973 345.94 57.7573 345.838 57.406C345.736 57.0547 345.583 56.7543 345.379 56.505C345.016 55.9497 344.501 55.485 343.832 55.111C343.175 54.737 342.319 54.55 341.265 54.55C340.188 54.55 339.253 54.788 338.46 55.264C337.667 55.74 337.072 56.2897 336.675 56.913L332.986 54.533C333.496 53.8077 334.176 53.1673 335.026 52.612C335.876 52.0567 336.845 51.626 337.933 51.32C339.021 51.0027 340.177 50.844 341.401 50.844C343.373 50.844 344.982 51.184 346.229 51.864C347.476 52.544 348.394 53.4733 348.983 54.652C349.266 55.23 349.499 55.8647 349.68 56.556C349.861 57.2473 349.98 58.0633 350.037 59.004C350.071 59.8767 350.099 60.6643 350.122 61.367C350.145 62.0697 350.173 62.71 350.207 63.288C350.23 64.1153 350.326 64.6537 350.496 64.903C350.677 65.141 350.921 65.26 351.227 65.26C351.556 65.26 351.839 65.1523 352.077 64.937C352.315 64.7217 352.462 64.427 352.519 64.053L354.236 66.909C354.134 67.5777 353.788 68.116 353.199 68.524C352.61 68.9207 351.89 69.119 351.04 69.119C350.394 69.119 349.799 69.0057 349.255 68.779C348.711 68.541 348.263 68.235 347.912 67.861C347.572 67.4757 347.374 67.0563 347.317 66.603C347.113 67.0223 346.711 67.4417 346.11 67.861C345.509 68.2803 344.75 68.626 343.832 68.898C342.914 69.17 341.86 69.306 340.67 69.306ZM341.622 65.753C342.223 65.753 342.829 65.6623 343.441 65.481C344.053 65.2997 344.608 65.0617 345.107 64.767C345.617 64.4723 346.019 64.1663 346.314 63.849C346.291 63.373 346.274 62.9197 346.263 62.489C346.263 62.0583 346.269 61.6787 346.28 61.35C346.008 61.248 345.481 61.129 344.699 60.993C343.928 60.8457 343.095 60.772 342.2 60.772C341.407 60.772 340.67 60.8683 339.99 61.061C339.321 61.2423 338.777 61.52 338.358 61.894C337.95 62.2567 337.746 62.7157 337.746 63.271C337.746 63.9057 337.905 64.4043 338.222 64.767C338.551 65.1297 339.004 65.3847 339.582 65.532C340.171 65.6793 340.851 65.753 341.622 65.753ZM366.919 66.467C366.715 66.9203 366.398 67.4077 365.967 67.929C365.548 68.439 364.992 68.8697 364.301 69.221C363.61 69.5837 362.748 69.765 361.717 69.765C360.38 69.765 359.297 69.4817 358.47 68.915C357.643 68.3483 357.036 67.5947 356.651 66.654C356.277 65.702 356.09 64.665 356.09 63.543C356.09 62.9423 356.096 62.285 356.107 61.571C356.13 60.8457 356.152 60.1147 356.175 59.378C356.198 58.63 356.22 57.9217 356.243 57.253C356.277 56.5843 356.305 55.995 356.328 55.485C356.362 54.9637 356.385 54.567 356.396 54.295C355.433 54.397 354.56 54.5103 353.778 54.635C352.996 54.7483 352.475 54.8333 352.214 54.89C352.112 54.3573 352.033 53.802 351.976 53.224C351.931 52.646 351.897 52.1417 351.874 51.711C351.851 51.2803 351.84 51.0083 351.84 50.895C352.486 50.8043 353.2 50.7193 353.982 50.64C354.764 50.5493 355.569 50.4813 356.396 50.436C356.385 50.1073 356.373 49.6427 356.362 49.042C356.362 48.4413 356.356 47.8917 356.345 47.393C356.334 46.951 356.311 46.5147 356.277 46.084C356.243 45.642 356.215 45.2793 356.192 44.996L360.612 44.639C360.612 44.7863 360.618 45.1377 360.629 45.693C360.652 46.237 360.663 46.8943 360.663 47.665C360.663 48.005 360.663 48.413 360.663 48.889C360.674 49.3537 360.68 49.7957 360.68 50.215C361.054 50.1923 361.49 50.1697 361.989 50.147C362.488 50.1243 362.884 50.1073 363.179 50.096C363.678 50.0733 364.137 50.062 364.556 50.062C364.975 50.062 365.327 50.0677 365.61 50.079C365.893 50.079 366.08 50.079 366.171 50.079C366.239 50.5437 366.279 51.1443 366.29 51.881C366.313 52.6063 366.324 53.2353 366.324 53.768C366.211 53.7567 365.837 53.7567 365.202 53.768C364.567 53.7793 363.944 53.7963 363.332 53.819C362.89 53.8303 362.408 53.853 361.887 53.887C361.366 53.921 360.941 53.955 360.612 53.989C360.601 54.2383 360.584 54.601 360.561 55.077C360.538 55.5417 360.516 56.0687 360.493 56.658C360.482 57.236 360.465 57.831 360.442 58.443C360.419 59.055 360.402 59.6387 360.391 60.194C360.38 60.7493 360.374 61.2253 360.374 61.622C360.374 62.3587 360.414 63.033 360.493 63.645C360.572 64.257 360.748 64.75 361.02 65.124C361.303 65.4867 361.74 65.668 362.329 65.668C362.726 65.668 363.054 65.5433 363.315 65.294C363.576 65.0447 363.785 64.7557 363.944 64.427C364.114 64.0983 364.256 63.8093 364.369 63.56C364.494 63.73 364.681 63.9623 364.93 64.257C365.179 64.5403 365.44 64.835 365.712 65.141C365.995 65.447 366.245 65.7247 366.46 65.974C366.687 66.212 366.84 66.3763 366.919 66.467ZM382.823 66.467C382.619 66.9203 382.302 67.4077 381.871 67.929C381.452 68.439 380.897 68.8697 380.205 69.221C379.514 69.5837 378.653 69.765 377.621 69.765C376.284 69.765 375.202 69.4817 374.374 68.915C373.547 68.3483 372.941 67.5947 372.555 66.654C372.181 65.702 371.994 64.665 371.994 63.543C371.994 62.9423 372 62.285 372.011 61.571C372.034 60.8457 372.057 60.1147 372.079 59.378C372.102 58.63 372.125 57.9217 372.147 57.253C372.181 56.5843 372.21 55.995 372.232 55.485C372.266 54.9637 372.289 54.567 372.3 54.295C371.337 54.397 370.464 54.5103 369.682 54.635C368.9 54.7483 368.379 54.8333 368.118 54.89C368.016 54.3573 367.937 53.802 367.88 53.224C367.835 52.646 367.801 52.1417 367.778 51.711C367.756 51.2803 367.744 51.0083 367.744 50.895C368.39 50.8043 369.104 50.7193 369.886 50.64C370.668 50.5493 371.473 50.4813 372.3 50.436C372.289 50.1073 372.278 49.6427 372.266 49.042C372.266 48.4413 372.261 47.8917 372.249 47.393C372.238 46.951 372.215 46.5147 372.181 46.084C372.147 45.642 372.119 45.2793 372.096 44.996L376.516 44.639C376.516 44.7863 376.522 45.1377 376.533 45.693C376.556 46.237 376.567 46.8943 376.567 47.665C376.567 48.005 376.567 48.413 376.567 48.889C376.579 49.3537 376.584 49.7957 376.584 50.215C376.958 50.1923 377.395 50.1697 377.893 50.147C378.392 50.1243 378.789 50.1073 379.083 50.096C379.582 50.0733 380.041 50.062 380.46 50.062C380.88 50.062 381.231 50.0677 381.514 50.079C381.798 50.079 381.985 50.079 382.075 50.079C382.143 50.5437 382.183 51.1443 382.194 51.881C382.217 52.6063 382.228 53.2353 382.228 53.768C382.115 53.7567 381.741 53.7567 381.106 53.768C380.472 53.7793 379.848 53.7963 379.236 53.819C378.794 53.8303 378.313 53.853 377.791 53.887C377.27 53.921 376.845 53.955 376.516 53.989C376.505 54.2383 376.488 54.601 376.465 55.077C376.443 55.5417 376.42 56.0687 376.397 56.658C376.386 57.236 376.369 57.831 376.346 58.443C376.324 59.055 376.307 59.6387 376.295 60.194C376.284 60.7493 376.278 61.2253 376.278 61.622C376.278 62.3587 376.318 63.033 376.397 63.645C376.477 64.257 376.652 64.75 376.924 65.124C377.208 65.4867 377.644 65.668 378.233 65.668C378.63 65.668 378.959 65.5433 379.219 65.294C379.48 65.0447 379.69 64.7557 379.848 64.427C380.018 64.0983 380.16 63.8093 380.273 63.56C380.398 63.73 380.585 63.9623 380.834 64.257C381.084 64.5403 381.344 64.835 381.616 65.141C381.9 65.447 382.149 65.7247 382.364 65.974C382.591 66.212 382.744 66.3763 382.823 66.467ZM400.546 65.702C400.263 66.0647 399.883 66.4443 399.407 66.841C398.943 67.2263 398.382 67.5833 397.724 67.912C397.067 68.2293 396.308 68.49 395.446 68.694C394.585 68.898 393.622 69 392.556 69C390.845 69 389.332 68.6657 388.017 67.997C386.714 67.3283 385.694 66.348 384.957 65.056C384.232 63.7527 383.869 62.1433 383.869 60.228C383.869 58.3353 384.255 56.692 385.025 55.298C385.796 53.8927 386.867 52.8047 388.238 52.034C389.61 51.2633 391.196 50.878 392.998 50.878C395.276 50.878 397.067 51.5353 398.37 52.85C399.674 54.1533 400.371 55.944 400.461 58.222C400.473 58.6187 400.467 58.987 400.444 59.327C400.433 59.6557 400.399 60.0127 400.342 60.398C400.184 60.3867 399.844 60.3753 399.322 60.364C398.801 60.3413 398.206 60.3243 397.537 60.313C396.869 60.2903 396.223 60.2733 395.599 60.262C394.987 60.2507 394.506 60.245 394.154 60.245C393.123 60.245 392.097 60.296 391.077 60.398C390.057 60.4887 389.185 60.5907 388.459 60.704C388.459 60.942 388.476 61.1743 388.51 61.401C388.544 61.6277 388.59 61.843 388.646 62.047C388.816 62.591 389.105 63.0613 389.513 63.458C389.933 63.8433 390.431 64.138 391.009 64.342C391.599 64.546 392.216 64.648 392.862 64.648C393.486 64.648 394.047 64.563 394.545 64.393C395.044 64.223 395.486 64.0077 395.871 63.747C396.268 63.4863 396.614 63.2143 396.908 62.931C397.203 62.6477 397.464 62.3983 397.69 62.183C397.758 62.2397 397.917 62.3927 398.166 62.642C398.416 62.8913 398.699 63.1917 399.016 63.543C399.334 63.8943 399.628 64.2627 399.9 64.648C400.184 65.0333 400.399 65.3847 400.546 65.702ZM388.595 57.831C389.207 57.729 389.944 57.6383 390.805 57.559C391.678 57.4797 392.681 57.44 393.814 57.44C394.415 57.44 394.936 57.4513 395.378 57.474C395.832 57.4853 396.149 57.4967 396.33 57.508C396.33 57.2247 396.291 56.9187 396.211 56.59C396.109 56.148 395.911 55.723 395.616 55.315C395.333 54.8957 394.959 54.5557 394.494 54.295C394.03 54.0343 393.469 53.904 392.811 53.904C391.995 53.904 391.276 54.0797 390.652 54.431C390.029 54.771 389.536 55.2413 389.173 55.842C388.822 56.4313 388.629 57.0943 388.595 57.831ZM412.571 69.425C409.579 69.425 407.341 68.6203 405.856 67.011C404.371 65.3903 403.629 63.05 403.629 59.99C403.629 57.9953 404.009 56.3237 404.768 54.975C405.539 53.6263 406.604 52.612 407.964 51.932C409.335 51.2407 410.916 50.895 412.707 50.895C414.566 50.895 416.101 51.32 417.314 52.17C418.538 53.02 419.45 54.1987 420.051 55.706C420.663 57.2133 420.969 58.9587 420.969 60.942C420.969 62.6533 420.64 64.1437 419.983 65.413C419.326 66.6823 418.374 67.6683 417.127 68.371C415.88 69.0737 414.362 69.425 412.571 69.425ZM412.401 65.158C413.126 65.158 413.755 65.0333 414.288 64.784C414.832 64.5233 415.285 64.1663 415.648 63.713C416.011 63.2483 416.277 62.7157 416.447 62.115C416.628 61.5143 416.719 60.874 416.719 60.194C416.719 59.0607 416.56 58.0577 416.243 57.185C415.926 56.3123 415.45 55.6323 414.815 55.145C414.192 54.6463 413.41 54.397 412.469 54.397C411.494 54.397 410.684 54.6407 410.038 55.128C409.403 55.6153 408.933 56.267 408.627 57.083C408.321 57.899 408.168 58.7887 408.168 59.752C408.168 61.3273 408.525 62.625 409.239 63.645C409.964 64.6537 411.018 65.158 412.401 65.158Z" fill="#313131"/>
</svg>
