<svg width="1416" height="340" viewBox="0 0 1416 340" fill="none" xmlns="http://www.w3.org/2000/svg">
<g filter="url(#filter0_d_2445_12299)">
<path d="M349.158 147.985C349.158 197.022 385.327 236.775 336.289 236.775C287.252 236.775 247.499 197.022 247.499 147.985C247.499 98.9468 287.252 59.1938 336.289 59.1938C385.327 59.1938 349.158 98.9468 349.158 147.985Z" fill="#408AA0"/>
</g>
<g filter="url(#filter1_d_2445_12299)">
<circle cx="537.033" cy="147.985" r="114.527" fill="#0F6081"/>
</g>
<g filter="url(#filter2_d_2445_12299)">
<path d="M162.568 147.984C162.568 182.808 206.4 211.039 171.576 211.039C136.752 211.039 108.522 182.808 108.522 147.984C108.522 113.161 136.752 84.9302 171.576 84.9302C206.4 84.9302 162.568 113.161 162.568 147.984Z" fill="#367588"/>
</g>
<g filter="url(#filter3_d_2445_12299)">
<path d="M26.1654 147.984C26.1654 168.594 60.9305 185.302 40.3204 185.302C19.7103 185.302 3.00256 168.594 3.00256 147.984C3.00256 127.374 19.7103 110.667 40.3204 110.667C60.9305 110.667 26.1654 127.374 26.1654 147.984Z" fill="#03738C"/>
</g>
<g filter="url(#filter4_d_2445_12299)">
<path d="M1036.32 147.985C1036.32 98.9469 1000.15 59.194 1049.19 59.194C1098.23 59.194 1137.98 98.9469 1137.98 147.985C1137.98 197.022 1098.23 236.775 1049.19 236.775C1000.15 236.775 1036.32 197.022 1036.32 147.985Z" fill="#F2D338"/>
</g>
<g filter="url(#filter5_d_2445_12299)">
<circle cx="848.445" cy="147.985" r="114.527" transform="rotate(-180 848.445 147.985)" fill="#FCB722"/>
</g>
<g filter="url(#filter6_d_2445_12299)">
<path d="M1222.91 147.984C1222.91 113.16 1179.08 84.93 1213.9 84.93C1248.73 84.93 1276.96 113.16 1276.96 147.984C1276.96 182.808 1248.73 211.039 1213.9 211.039C1179.08 211.039 1222.91 182.808 1222.91 147.984Z" fill="#E1AD01"/>
</g>
<g filter="url(#filter7_d_2445_12299)">
<path d="M1359.31 147.984C1359.31 127.374 1324.55 110.667 1345.16 110.667C1365.77 110.667 1382.48 127.374 1382.48 147.984C1382.48 168.594 1365.77 185.302 1345.16 185.302C1324.55 185.302 1359.31 168.594 1359.31 147.984Z" fill="#F2CCB6"/>
</g>
<path d="M649.697 332.707C650.087 332.317 650.087 331.683 649.697 331.293L643.333 324.929C642.942 324.538 642.309 324.538 641.919 324.929C641.528 325.319 641.528 325.953 641.919 326.343L647.575 332L641.919 337.657C641.528 338.047 641.528 338.681 641.919 339.071C642.309 339.462 642.942 339.462 643.333 339.071L649.697 332.707ZM3 333H648.99V331H3V333Z" fill="#2B2B2B"/>
<path d="M733.21 331.293C732.82 331.683 732.82 332.317 733.21 332.707L739.574 339.071C739.965 339.462 740.598 339.462 740.988 339.071C741.379 338.681 741.379 338.047 740.988 337.657L735.331 332L740.988 326.343C741.379 325.953 741.379 325.319 740.988 324.929C740.598 324.538 739.965 324.538 739.574 324.929L733.21 331.293ZM733.917 333H1379.91V331H733.917V333Z" fill="#2B2B2B"/>
<path d="M6.76256 303.249V308.749H14.0026V310.029H6.76256V315.969H5.28256V301.969H14.8826V303.249H6.76256ZM17.4435 305.449H18.8635V315.969H17.4435V305.449ZM18.1635 303.149C17.8702 303.149 17.6235 303.049 17.4235 302.849C17.2235 302.649 17.1235 302.409 17.1235 302.129C17.1235 301.862 17.2235 301.629 17.4235 301.429C17.6235 301.229 17.8702 301.129 18.1635 301.129C18.4568 301.129 18.7035 301.229 18.9035 301.429C19.1035 301.615 19.2035 301.842 19.2035 302.109C19.2035 302.402 19.1035 302.649 18.9035 302.849C18.7035 303.049 18.4568 303.149 18.1635 303.149ZM24.1746 307.509C24.5079 306.802 25.0013 306.269 25.6546 305.909C26.3213 305.549 27.1413 305.369 28.1146 305.369V306.749L27.7746 306.729C26.6679 306.729 25.8013 307.069 25.1746 307.749C24.5479 308.429 24.2346 309.382 24.2346 310.609V315.969H22.8146V305.449H24.1746V307.509ZM33.5838 316.069C32.7305 316.069 31.9105 315.949 31.1238 315.709C30.3505 315.455 29.7438 315.142 29.3038 314.769L29.9438 313.649C30.3838 313.995 30.9371 314.282 31.6038 314.509C32.2705 314.722 32.9638 314.829 33.6838 314.829C34.6438 314.829 35.3505 314.682 35.8038 314.389C36.2705 314.082 36.5038 313.655 36.5038 313.109C36.5038 312.722 36.3771 312.422 36.1238 312.209C35.8705 311.982 35.5505 311.815 35.1638 311.709C34.7771 311.589 34.2638 311.475 33.6238 311.369C32.7705 311.209 32.0838 311.049 31.5638 310.889C31.0438 310.715 30.5971 310.429 30.2238 310.029C29.8638 309.629 29.6838 309.075 29.6838 308.369C29.6838 307.489 30.0505 306.769 30.7838 306.209C31.5171 305.649 32.5371 305.369 33.8438 305.369C34.5238 305.369 35.2038 305.462 35.8838 305.649C36.5638 305.822 37.1238 306.055 37.5638 306.349L36.9438 307.489C36.0771 306.889 35.0438 306.589 33.8438 306.589C32.9371 306.589 32.2505 306.749 31.7838 307.069C31.3305 307.389 31.1038 307.809 31.1038 308.329C31.1038 308.729 31.2305 309.049 31.4838 309.289C31.7505 309.529 32.0771 309.709 32.4638 309.829C32.8505 309.935 33.3838 310.049 34.0638 310.169C34.9038 310.329 35.5771 310.489 36.0838 310.649C36.5905 310.809 37.0238 311.082 37.3838 311.469C37.7438 311.855 37.9238 312.389 37.9238 313.069C37.9238 313.989 37.5371 314.722 36.7638 315.269C36.0038 315.802 34.9438 316.069 33.5838 316.069ZM46.089 315.329C45.8223 315.569 45.489 315.755 45.089 315.889C44.7023 316.009 44.2956 316.069 43.869 316.069C42.8823 316.069 42.1223 315.802 41.589 315.269C41.0556 314.735 40.789 313.982 40.789 313.009V306.649H38.909V305.449H40.789V303.149H42.209V305.449H45.409V306.649H42.209V312.929C42.209 313.555 42.3623 314.035 42.669 314.369C42.989 314.689 43.4423 314.849 44.029 314.849C44.3223 314.849 44.6023 314.802 44.869 314.709C45.149 314.615 45.389 314.482 45.589 314.309L46.089 315.329ZM58.2683 316.069C57.2283 316.069 56.295 315.842 55.4683 315.389C54.655 314.935 54.015 314.302 53.5483 313.489C53.0817 312.662 52.8483 311.735 52.8483 310.709C52.8483 309.682 53.0817 308.762 53.5483 307.949C54.015 307.135 54.655 306.502 55.4683 306.049C56.295 305.595 57.2283 305.369 58.2683 305.369C59.175 305.369 59.9817 305.549 60.6883 305.909C61.4083 306.255 61.975 306.769 62.3883 307.449L61.3283 308.169C60.9817 307.649 60.5417 307.262 60.0083 307.009C59.475 306.742 58.895 306.609 58.2683 306.609C57.5083 306.609 56.8217 306.782 56.2083 307.129C55.6083 307.462 55.135 307.942 54.7883 308.569C54.455 309.195 54.2883 309.909 54.2883 310.709C54.2883 311.522 54.455 312.242 54.7883 312.869C55.135 313.482 55.6083 313.962 56.2083 314.309C56.8217 314.642 57.5083 314.809 58.2683 314.809C58.895 314.809 59.475 314.682 60.0083 314.429C60.5417 314.175 60.9817 313.789 61.3283 313.269L62.3883 313.989C61.975 314.669 61.4083 315.189 60.6883 315.549C59.9683 315.895 59.1617 316.069 58.2683 316.069ZM70.3816 305.369C71.7016 305.369 72.7483 305.755 73.5216 306.529C74.3083 307.289 74.7016 308.402 74.7016 309.869V315.969H73.2816V310.009C73.2816 308.915 73.0083 308.082 72.4616 307.509C71.915 306.935 71.135 306.649 70.1216 306.649C68.9883 306.649 68.0883 306.989 67.4216 307.669C66.7683 308.335 66.4416 309.262 66.4416 310.449V315.969H65.0216V301.129H66.4416V307.289C66.8283 306.675 67.3616 306.202 68.0416 305.869C68.7216 305.535 69.5016 305.369 70.3816 305.369ZM82.8958 316.069C81.8825 316.069 80.9692 315.842 80.1558 315.389C79.3425 314.922 78.7025 314.282 78.2358 313.469C77.7692 312.655 77.5358 311.735 77.5358 310.709C77.5358 309.682 77.7692 308.762 78.2358 307.949C78.7025 307.135 79.3425 306.502 80.1558 306.049C80.9692 305.595 81.8825 305.369 82.8958 305.369C83.9092 305.369 84.8225 305.595 85.6358 306.049C86.4492 306.502 87.0825 307.135 87.5358 307.949C88.0025 308.762 88.2358 309.682 88.2358 310.709C88.2358 311.735 88.0025 312.655 87.5358 313.469C87.0825 314.282 86.4492 314.922 85.6358 315.389C84.8225 315.842 83.9092 316.069 82.8958 316.069ZM82.8958 314.809C83.6425 314.809 84.3092 314.642 84.8958 314.309C85.4958 313.962 85.9625 313.475 86.2958 312.849C86.6292 312.222 86.7958 311.509 86.7958 310.709C86.7958 309.909 86.6292 309.195 86.2958 308.569C85.9625 307.942 85.4958 307.462 84.8958 307.129C84.3092 306.782 83.6425 306.609 82.8958 306.609C82.1492 306.609 81.4758 306.782 80.8758 307.129C80.2892 307.462 79.8225 307.942 79.4758 308.569C79.1425 309.195 78.9758 309.909 78.9758 310.709C78.9758 311.509 79.1425 312.222 79.4758 312.849C79.8225 313.475 80.2892 313.962 80.8758 314.309C81.4758 314.642 82.1492 314.809 82.8958 314.809ZM91.1349 305.449H92.5549V315.969H91.1349V305.449ZM91.8549 303.149C91.5616 303.149 91.3149 303.049 91.1149 302.849C90.9149 302.649 90.8149 302.409 90.8149 302.129C90.8149 301.862 90.9149 301.629 91.1149 301.429C91.3149 301.229 91.5616 301.129 91.8549 301.129C92.1482 301.129 92.3949 301.229 92.5949 301.429C92.7949 301.615 92.8949 301.842 92.8949 302.109C92.8949 302.402 92.7949 302.649 92.5949 302.849C92.3949 303.049 92.1482 303.149 91.8549 303.149ZM100.866 316.069C99.826 316.069 98.8927 315.842 98.066 315.389C97.2527 314.935 96.6127 314.302 96.146 313.489C95.6793 312.662 95.446 311.735 95.446 310.709C95.446 309.682 95.6793 308.762 96.146 307.949C96.6127 307.135 97.2527 306.502 98.066 306.049C98.8927 305.595 99.826 305.369 100.866 305.369C101.773 305.369 102.579 305.549 103.286 305.909C104.006 306.255 104.573 306.769 104.986 307.449L103.926 308.169C103.579 307.649 103.139 307.262 102.606 307.009C102.073 306.742 101.493 306.609 100.866 306.609C100.106 306.609 99.4193 306.782 98.806 307.129C98.206 307.462 97.7327 307.942 97.386 308.569C97.0527 309.195 96.886 309.909 96.886 310.709C96.886 311.522 97.0527 312.242 97.386 312.869C97.7327 313.482 98.206 313.962 98.806 314.309C99.4193 314.642 100.106 314.809 100.866 314.809C101.493 314.809 102.073 314.682 102.606 314.429C103.139 314.175 103.579 313.789 103.926 313.269L104.986 313.989C104.573 314.669 104.006 315.189 103.286 315.549C102.566 315.895 101.759 316.069 100.866 316.069ZM116.76 311.149H107.96C108.04 312.242 108.46 313.129 109.22 313.809C109.98 314.475 110.94 314.809 112.1 314.809C112.753 314.809 113.353 314.695 113.9 314.469C114.446 314.229 114.92 313.882 115.32 313.429L116.12 314.349C115.653 314.909 115.066 315.335 114.36 315.629C113.666 315.922 112.9 316.069 112.06 316.069C110.98 316.069 110.02 315.842 109.18 315.389C108.353 314.922 107.706 314.282 107.24 313.469C106.773 312.655 106.54 311.735 106.54 310.709C106.54 309.682 106.76 308.762 107.2 307.949C107.653 307.135 108.266 306.502 109.04 306.049C109.826 305.595 110.706 305.369 111.68 305.369C112.653 305.369 113.526 305.595 114.3 306.049C115.073 306.502 115.68 307.135 116.12 307.949C116.56 308.749 116.78 309.669 116.78 310.709L116.76 311.149ZM111.68 306.589C110.666 306.589 109.813 306.915 109.12 307.569C108.44 308.209 108.053 309.049 107.96 310.089H115.42C115.326 309.049 114.933 308.209 114.24 307.569C113.56 306.915 112.706 306.589 111.68 306.589Z" fill="black"/>
<path d="M1270.39 304.249V309.749H1277.63V311.029H1270.39V316.969H1268.91V302.969H1278.51V304.249H1270.39ZM1281.07 306.449H1282.49V316.969H1281.07V306.449ZM1281.79 304.149C1281.5 304.149 1281.25 304.049 1281.05 303.849C1280.85 303.649 1280.75 303.409 1280.75 303.129C1280.75 302.862 1280.85 302.629 1281.05 302.429C1281.25 302.229 1281.5 302.129 1281.79 302.129C1282.08 302.129 1282.33 302.229 1282.53 302.429C1282.73 302.615 1282.83 302.842 1282.83 303.109C1282.83 303.402 1282.73 303.649 1282.53 303.849C1282.33 304.049 1282.08 304.149 1281.79 304.149ZM1287.8 308.509C1288.14 307.802 1288.63 307.269 1289.28 306.909C1289.95 306.549 1290.77 306.369 1291.74 306.369V307.749L1291.4 307.729C1290.3 307.729 1289.43 308.069 1288.8 308.749C1288.18 309.429 1287.86 310.382 1287.86 311.609V316.969H1286.44V306.449H1287.8V308.509ZM1297.21 317.069C1296.36 317.069 1295.54 316.949 1294.75 316.709C1293.98 316.455 1293.37 316.142 1292.93 315.769L1293.57 314.649C1294.01 314.995 1294.56 315.282 1295.23 315.509C1295.9 315.722 1296.59 315.829 1297.31 315.829C1298.27 315.829 1298.98 315.682 1299.43 315.389C1299.9 315.082 1300.13 314.655 1300.13 314.109C1300.13 313.722 1300 313.422 1299.75 313.209C1299.5 312.982 1299.18 312.815 1298.79 312.709C1298.4 312.589 1297.89 312.475 1297.25 312.369C1296.4 312.209 1295.71 312.049 1295.19 311.889C1294.67 311.715 1294.22 311.429 1293.85 311.029C1293.49 310.629 1293.31 310.075 1293.31 309.369C1293.31 308.489 1293.68 307.769 1294.41 307.209C1295.14 306.649 1296.16 306.369 1297.47 306.369C1298.15 306.369 1298.83 306.462 1299.51 306.649C1300.19 306.822 1300.75 307.055 1301.19 307.349L1300.57 308.489C1299.7 307.889 1298.67 307.589 1297.47 307.589C1296.56 307.589 1295.88 307.749 1295.41 308.069C1294.96 308.389 1294.73 308.809 1294.73 309.329C1294.73 309.729 1294.86 310.049 1295.11 310.289C1295.38 310.529 1295.7 310.709 1296.09 310.829C1296.48 310.935 1297.01 311.049 1297.69 311.169C1298.53 311.329 1299.2 311.489 1299.71 311.649C1300.22 311.809 1300.65 312.082 1301.01 312.469C1301.37 312.855 1301.55 313.389 1301.55 314.069C1301.55 314.989 1301.16 315.722 1300.39 316.269C1299.63 316.802 1298.57 317.069 1297.21 317.069ZM1309.72 316.329C1309.45 316.569 1309.12 316.755 1308.72 316.889C1308.33 317.009 1307.92 317.069 1307.5 317.069C1306.51 317.069 1305.75 316.802 1305.22 316.269C1304.68 315.735 1304.42 314.982 1304.42 314.009V307.649H1302.54V306.449H1304.42V304.149H1305.84V306.449H1309.04V307.649H1305.84V313.929C1305.84 314.555 1305.99 315.035 1306.3 315.369C1306.62 315.689 1307.07 315.849 1307.66 315.849C1307.95 315.849 1308.23 315.802 1308.5 315.709C1308.78 315.615 1309.02 315.482 1309.22 315.309L1309.72 316.329ZM1321.9 317.069C1320.86 317.069 1319.92 316.842 1319.1 316.389C1318.28 315.935 1317.64 315.302 1317.18 314.489C1316.71 313.662 1316.48 312.735 1316.48 311.709C1316.48 310.682 1316.71 309.762 1317.18 308.949C1317.64 308.135 1318.28 307.502 1319.1 307.049C1319.92 306.595 1320.86 306.369 1321.9 306.369C1322.8 306.369 1323.61 306.549 1324.32 306.909C1325.04 307.255 1325.6 307.769 1326.02 308.449L1324.96 309.169C1324.61 308.649 1324.17 308.262 1323.64 308.009C1323.1 307.742 1322.52 307.609 1321.9 307.609C1321.14 307.609 1320.45 307.782 1319.84 308.129C1319.24 308.462 1318.76 308.942 1318.42 309.569C1318.08 310.195 1317.92 310.909 1317.92 311.709C1317.92 312.522 1318.08 313.242 1318.42 313.869C1318.76 314.482 1319.24 314.962 1319.84 315.309C1320.45 315.642 1321.14 315.809 1321.9 315.809C1322.52 315.809 1323.1 315.682 1323.64 315.429C1324.17 315.175 1324.61 314.789 1324.96 314.269L1326.02 314.989C1325.6 315.669 1325.04 316.189 1324.32 316.549C1323.6 316.895 1322.79 317.069 1321.9 317.069ZM1334.01 306.369C1335.33 306.369 1336.38 306.755 1337.15 307.529C1337.94 308.289 1338.33 309.402 1338.33 310.869V316.969H1336.91V311.009C1336.91 309.915 1336.64 309.082 1336.09 308.509C1335.54 307.935 1334.76 307.649 1333.75 307.649C1332.62 307.649 1331.72 307.989 1331.05 308.669C1330.4 309.335 1330.07 310.262 1330.07 311.449V316.969H1328.65V302.129H1330.07V308.289C1330.46 307.675 1330.99 307.202 1331.67 306.869C1332.35 306.535 1333.13 306.369 1334.01 306.369ZM1346.52 317.069C1345.51 317.069 1344.6 316.842 1343.78 316.389C1342.97 315.922 1342.33 315.282 1341.86 314.469C1341.4 313.655 1341.16 312.735 1341.16 311.709C1341.16 310.682 1341.4 309.762 1341.86 308.949C1342.33 308.135 1342.97 307.502 1343.78 307.049C1344.6 306.595 1345.51 306.369 1346.52 306.369C1347.54 306.369 1348.45 306.595 1349.26 307.049C1350.08 307.502 1350.71 308.135 1351.16 308.949C1351.63 309.762 1351.86 310.682 1351.86 311.709C1351.86 312.735 1351.63 313.655 1351.16 314.469C1350.71 315.282 1350.08 315.922 1349.26 316.389C1348.45 316.842 1347.54 317.069 1346.52 317.069ZM1346.52 315.809C1347.27 315.809 1347.94 315.642 1348.52 315.309C1349.12 314.962 1349.59 314.475 1349.92 313.849C1350.26 313.222 1350.42 312.509 1350.42 311.709C1350.42 310.909 1350.26 310.195 1349.92 309.569C1349.59 308.942 1349.12 308.462 1348.52 308.129C1347.94 307.782 1347.27 307.609 1346.52 307.609C1345.78 307.609 1345.1 307.782 1344.5 308.129C1343.92 308.462 1343.45 308.942 1343.1 309.569C1342.77 310.195 1342.6 310.909 1342.6 311.709C1342.6 312.509 1342.77 313.222 1343.1 313.849C1343.45 314.475 1343.92 314.962 1344.5 315.309C1345.1 315.642 1345.78 315.809 1346.52 315.809ZM1354.76 306.449H1356.18V316.969H1354.76V306.449ZM1355.48 304.149C1355.19 304.149 1354.94 304.049 1354.74 303.849C1354.54 303.649 1354.44 303.409 1354.44 303.129C1354.44 302.862 1354.54 302.629 1354.74 302.429C1354.94 302.229 1355.19 302.129 1355.48 302.129C1355.78 302.129 1356.02 302.229 1356.22 302.429C1356.42 302.615 1356.52 302.842 1356.52 303.109C1356.52 303.402 1356.42 303.649 1356.22 303.849C1356.02 304.049 1355.78 304.149 1355.48 304.149ZM1364.49 317.069C1363.45 317.069 1362.52 316.842 1361.69 316.389C1360.88 315.935 1360.24 315.302 1359.77 314.489C1359.31 313.662 1359.07 312.735 1359.07 311.709C1359.07 310.682 1359.31 309.762 1359.77 308.949C1360.24 308.135 1360.88 307.502 1361.69 307.049C1362.52 306.595 1363.45 306.369 1364.49 306.369C1365.4 306.369 1366.21 306.549 1366.91 306.909C1367.63 307.255 1368.2 307.769 1368.61 308.449L1367.55 309.169C1367.21 308.649 1366.77 308.262 1366.23 308.009C1365.7 307.742 1365.12 307.609 1364.49 307.609C1363.73 307.609 1363.05 307.782 1362.43 308.129C1361.83 308.462 1361.36 308.942 1361.01 309.569C1360.68 310.195 1360.51 310.909 1360.51 311.709C1360.51 312.522 1360.68 313.242 1361.01 313.869C1361.36 314.482 1361.83 314.962 1362.43 315.309C1363.05 315.642 1363.73 315.809 1364.49 315.809C1365.12 315.809 1365.7 315.682 1366.23 315.429C1366.77 315.175 1367.21 314.789 1367.55 314.269L1368.61 314.989C1368.2 315.669 1367.63 316.189 1366.91 316.549C1366.19 316.895 1365.39 317.069 1364.49 317.069ZM1380.39 312.149H1371.59C1371.67 313.242 1372.09 314.129 1372.85 314.809C1373.61 315.475 1374.57 315.809 1375.73 315.809C1376.38 315.809 1376.98 315.695 1377.53 315.469C1378.07 315.229 1378.55 314.882 1378.95 314.429L1379.75 315.349C1379.28 315.909 1378.69 316.335 1377.99 316.629C1377.29 316.922 1376.53 317.069 1375.69 317.069C1374.61 317.069 1373.65 316.842 1372.81 316.389C1371.98 315.922 1371.33 315.282 1370.87 314.469C1370.4 313.655 1370.17 312.735 1370.17 311.709C1370.17 310.682 1370.39 309.762 1370.83 308.949C1371.28 308.135 1371.89 307.502 1372.67 307.049C1373.45 306.595 1374.33 306.369 1375.31 306.369C1376.28 306.369 1377.15 306.595 1377.93 307.049C1378.7 307.502 1379.31 308.135 1379.75 308.949C1380.19 309.749 1380.41 310.669 1380.41 311.709L1380.39 312.149ZM1375.31 307.589C1374.29 307.589 1373.44 307.915 1372.75 308.569C1372.07 309.209 1371.68 310.049 1371.59 311.089H1379.05C1378.95 310.049 1378.56 309.209 1377.87 308.569C1377.19 307.915 1376.33 307.589 1375.31 307.589Z" fill="black"/>
<path d="M493.833 302.969H495.313V315.689H503.153V316.969H493.833V302.969ZM509.029 306.369C510.403 306.369 511.456 306.715 512.189 307.409C512.923 308.089 513.289 309.102 513.289 310.449V316.969H511.929V315.329C511.609 315.875 511.136 316.302 510.509 316.609C509.896 316.915 509.163 317.069 508.309 317.069C507.136 317.069 506.203 316.789 505.509 316.229C504.816 315.669 504.469 314.929 504.469 314.009C504.469 313.115 504.789 312.395 505.429 311.849C506.083 311.302 507.116 311.029 508.529 311.029H511.869V310.389C511.869 309.482 511.616 308.795 511.109 308.329C510.603 307.849 509.863 307.609 508.889 307.609C508.223 307.609 507.583 307.722 506.969 307.949C506.356 308.162 505.829 308.462 505.389 308.849L504.749 307.789C505.283 307.335 505.923 306.989 506.669 306.749C507.416 306.495 508.203 306.369 509.029 306.369ZM508.529 315.949C509.329 315.949 510.016 315.769 510.589 315.409C511.163 315.035 511.589 314.502 511.869 313.809V312.089H508.569C506.769 312.089 505.869 312.715 505.869 313.969C505.869 314.582 506.103 315.069 506.569 315.429C507.036 315.775 507.689 315.949 508.529 315.949ZM519.966 317.069C519.113 317.069 518.293 316.949 517.506 316.709C516.733 316.455 516.126 316.142 515.686 315.769L516.326 314.649C516.766 314.995 517.32 315.282 517.986 315.509C518.653 315.722 519.346 315.829 520.066 315.829C521.026 315.829 521.733 315.682 522.186 315.389C522.653 315.082 522.886 314.655 522.886 314.109C522.886 313.722 522.76 313.422 522.506 313.209C522.253 312.982 521.933 312.815 521.546 312.709C521.16 312.589 520.646 312.475 520.006 312.369C519.153 312.209 518.466 312.049 517.946 311.889C517.426 311.715 516.98 311.429 516.606 311.029C516.246 310.629 516.066 310.075 516.066 309.369C516.066 308.489 516.433 307.769 517.166 307.209C517.9 306.649 518.92 306.369 520.226 306.369C520.906 306.369 521.586 306.462 522.266 306.649C522.946 306.822 523.506 307.055 523.946 307.349L523.326 308.489C522.46 307.889 521.426 307.589 520.226 307.589C519.32 307.589 518.633 307.749 518.166 308.069C517.713 308.389 517.486 308.809 517.486 309.329C517.486 309.729 517.613 310.049 517.866 310.289C518.133 310.529 518.46 310.709 518.846 310.829C519.233 310.935 519.766 311.049 520.446 311.169C521.286 311.329 521.96 311.489 522.466 311.649C522.973 311.809 523.406 312.082 523.766 312.469C524.126 312.855 524.306 313.389 524.306 314.069C524.306 314.989 523.92 315.722 523.146 316.269C522.386 316.802 521.326 317.069 519.966 317.069ZM532.471 316.329C532.205 316.569 531.871 316.755 531.471 316.889C531.085 317.009 530.678 317.069 530.251 317.069C529.265 317.069 528.505 316.802 527.971 316.269C527.438 315.735 527.171 314.982 527.171 314.009V307.649H525.291V306.449H527.171V304.149H528.591V306.449H531.791V307.649H528.591V313.929C528.591 314.555 528.745 315.035 529.051 315.369C529.371 315.689 529.825 315.849 530.411 315.849C530.705 315.849 530.985 315.802 531.251 315.709C531.531 315.615 531.771 315.482 531.971 315.309L532.471 316.329ZM544.651 317.069C543.611 317.069 542.677 316.842 541.851 316.389C541.037 315.935 540.397 315.302 539.931 314.489C539.464 313.662 539.231 312.735 539.231 311.709C539.231 310.682 539.464 309.762 539.931 308.949C540.397 308.135 541.037 307.502 541.851 307.049C542.677 306.595 543.611 306.369 544.651 306.369C545.557 306.369 546.364 306.549 547.071 306.909C547.791 307.255 548.357 307.769 548.771 308.449L547.711 309.169C547.364 308.649 546.924 308.262 546.391 308.009C545.857 307.742 545.277 307.609 544.651 307.609C543.891 307.609 543.204 307.782 542.591 308.129C541.991 308.462 541.517 308.942 541.171 309.569C540.837 310.195 540.671 310.909 540.671 311.709C540.671 312.522 540.837 313.242 541.171 313.869C541.517 314.482 541.991 314.962 542.591 315.309C543.204 315.642 543.891 315.809 544.651 315.809C545.277 315.809 545.857 315.682 546.391 315.429C546.924 315.175 547.364 314.789 547.711 314.269L548.771 314.989C548.357 315.669 547.791 316.189 547.071 316.549C546.351 316.895 545.544 317.069 544.651 317.069ZM556.764 306.369C558.084 306.369 559.131 306.755 559.904 307.529C560.691 308.289 561.084 309.402 561.084 310.869V316.969H559.664V311.009C559.664 309.915 559.391 309.082 558.844 308.509C558.297 307.935 557.517 307.649 556.504 307.649C555.371 307.649 554.471 307.989 553.804 308.669C553.151 309.335 552.824 310.262 552.824 311.449V316.969H551.404V302.129H552.824V308.289C553.211 307.675 553.744 307.202 554.424 306.869C555.104 306.535 555.884 306.369 556.764 306.369ZM569.278 317.069C568.265 317.069 567.352 316.842 566.538 316.389C565.725 315.922 565.085 315.282 564.618 314.469C564.152 313.655 563.918 312.735 563.918 311.709C563.918 310.682 564.152 309.762 564.618 308.949C565.085 308.135 565.725 307.502 566.538 307.049C567.352 306.595 568.265 306.369 569.278 306.369C570.292 306.369 571.205 306.595 572.018 307.049C572.832 307.502 573.465 308.135 573.918 308.949C574.385 309.762 574.618 310.682 574.618 311.709C574.618 312.735 574.385 313.655 573.918 314.469C573.465 315.282 572.832 315.922 572.018 316.389C571.205 316.842 570.292 317.069 569.278 317.069ZM569.278 315.809C570.025 315.809 570.692 315.642 571.278 315.309C571.878 314.962 572.345 314.475 572.678 313.849C573.012 313.222 573.178 312.509 573.178 311.709C573.178 310.909 573.012 310.195 572.678 309.569C572.345 308.942 571.878 308.462 571.278 308.129C570.692 307.782 570.025 307.609 569.278 307.609C568.532 307.609 567.858 307.782 567.258 308.129C566.672 308.462 566.205 308.942 565.858 309.569C565.525 310.195 565.358 310.909 565.358 311.709C565.358 312.509 565.525 313.222 565.858 313.849C566.205 314.475 566.672 314.962 567.258 315.309C567.858 315.642 568.532 315.809 569.278 315.809ZM577.517 306.449H578.937V316.969H577.517V306.449ZM578.237 304.149C577.944 304.149 577.697 304.049 577.497 303.849C577.297 303.649 577.197 303.409 577.197 303.129C577.197 302.862 577.297 302.629 577.497 302.429C577.697 302.229 577.944 302.129 578.237 302.129C578.531 302.129 578.777 302.229 578.977 302.429C579.177 302.615 579.277 302.842 579.277 303.109C579.277 303.402 579.177 303.649 578.977 303.849C578.777 304.049 578.531 304.149 578.237 304.149ZM587.248 317.069C586.208 317.069 585.275 316.842 584.448 316.389C583.635 315.935 582.995 315.302 582.528 314.489C582.062 313.662 581.828 312.735 581.828 311.709C581.828 310.682 582.062 309.762 582.528 308.949C582.995 308.135 583.635 307.502 584.448 307.049C585.275 306.595 586.208 306.369 587.248 306.369C588.155 306.369 588.962 306.549 589.668 306.909C590.388 307.255 590.955 307.769 591.368 308.449L590.308 309.169C589.962 308.649 589.522 308.262 588.988 308.009C588.455 307.742 587.875 307.609 587.248 307.609C586.488 307.609 585.802 307.782 585.188 308.129C584.588 308.462 584.115 308.942 583.768 309.569C583.435 310.195 583.268 310.909 583.268 311.709C583.268 312.522 583.435 313.242 583.768 313.869C584.115 314.482 584.588 314.962 585.188 315.309C585.802 315.642 586.488 315.809 587.248 315.809C587.875 315.809 588.455 315.682 588.988 315.429C589.522 315.175 589.962 314.789 590.308 314.269L591.368 314.989C590.955 315.669 590.388 316.189 589.668 316.549C588.948 316.895 588.142 317.069 587.248 317.069ZM603.142 312.149H594.342C594.422 313.242 594.842 314.129 595.602 314.809C596.362 315.475 597.322 315.809 598.482 315.809C599.136 315.809 599.736 315.695 600.282 315.469C600.829 315.229 601.302 314.882 601.702 314.429L602.502 315.349C602.036 315.909 601.449 316.335 600.742 316.629C600.049 316.922 599.282 317.069 598.442 317.069C597.362 317.069 596.402 316.842 595.562 316.389C594.736 315.922 594.089 315.282 593.622 314.469C593.156 313.655 592.922 312.735 592.922 311.709C592.922 310.682 593.142 309.762 593.582 308.949C594.036 308.135 594.649 307.502 595.422 307.049C596.209 306.595 597.089 306.369 598.062 306.369C599.036 306.369 599.909 306.595 600.682 307.049C601.456 307.502 602.062 308.135 602.502 308.949C602.942 309.749 603.162 310.669 603.162 311.709L603.142 312.149ZM598.062 307.589C597.049 307.589 596.196 307.915 595.502 308.569C594.822 309.209 594.436 310.049 594.342 311.089H601.802C601.709 310.049 601.316 309.209 600.622 308.569C599.942 307.915 599.089 307.589 598.062 307.589Z" fill="black"/>
<path d="M769.655 302.969H771.135V315.689H778.975V316.969H769.655V302.969ZM784.851 306.369C786.224 306.369 787.278 306.715 788.011 307.409C788.744 308.089 789.111 309.102 789.111 310.449V316.969H787.751V315.329C787.431 315.875 786.958 316.302 786.331 316.609C785.718 316.915 784.984 317.069 784.131 317.069C782.958 317.069 782.024 316.789 781.331 316.229C780.638 315.669 780.291 314.929 780.291 314.009C780.291 313.115 780.611 312.395 781.251 311.849C781.904 311.302 782.938 311.029 784.351 311.029H787.691V310.389C787.691 309.482 787.438 308.795 786.931 308.329C786.424 307.849 785.684 307.609 784.711 307.609C784.044 307.609 783.404 307.722 782.791 307.949C782.178 308.162 781.651 308.462 781.211 308.849L780.571 307.789C781.104 307.335 781.744 306.989 782.491 306.749C783.238 306.495 784.024 306.369 784.851 306.369ZM784.351 315.949C785.151 315.949 785.838 315.769 786.411 315.409C786.984 315.035 787.411 314.502 787.691 313.809V312.089H784.391C782.591 312.089 781.691 312.715 781.691 313.969C781.691 314.582 781.924 315.069 782.391 315.429C782.858 315.775 783.511 315.949 784.351 315.949ZM795.788 317.069C794.934 317.069 794.114 316.949 793.328 316.709C792.554 316.455 791.948 316.142 791.508 315.769L792.148 314.649C792.588 314.995 793.141 315.282 793.808 315.509C794.474 315.722 795.168 315.829 795.888 315.829C796.848 315.829 797.554 315.682 798.008 315.389C798.474 315.082 798.708 314.655 798.708 314.109C798.708 313.722 798.581 313.422 798.328 313.209C798.074 312.982 797.754 312.815 797.368 312.709C796.981 312.589 796.468 312.475 795.828 312.369C794.974 312.209 794.288 312.049 793.768 311.889C793.248 311.715 792.801 311.429 792.428 311.029C792.068 310.629 791.888 310.075 791.888 309.369C791.888 308.489 792.254 307.769 792.988 307.209C793.721 306.649 794.741 306.369 796.048 306.369C796.728 306.369 797.408 306.462 798.088 306.649C798.768 306.822 799.328 307.055 799.768 307.349L799.148 308.489C798.281 307.889 797.248 307.589 796.048 307.589C795.141 307.589 794.454 307.749 793.988 308.069C793.534 308.389 793.308 308.809 793.308 309.329C793.308 309.729 793.434 310.049 793.688 310.289C793.954 310.529 794.281 310.709 794.668 310.829C795.054 310.935 795.588 311.049 796.268 311.169C797.108 311.329 797.781 311.489 798.288 311.649C798.794 311.809 799.228 312.082 799.588 312.469C799.948 312.855 800.128 313.389 800.128 314.069C800.128 314.989 799.741 315.722 798.968 316.269C798.208 316.802 797.148 317.069 795.788 317.069ZM808.293 316.329C808.026 316.569 807.693 316.755 807.293 316.889C806.906 317.009 806.5 317.069 806.073 317.069C805.086 317.069 804.326 316.802 803.793 316.269C803.26 315.735 802.993 314.982 802.993 314.009V307.649H801.113V306.449H802.993V304.149H804.413V306.449H807.613V307.649H804.413V313.929C804.413 314.555 804.566 315.035 804.873 315.369C805.193 315.689 805.646 315.849 806.233 315.849C806.526 315.849 806.806 315.802 807.073 315.709C807.353 315.615 807.593 315.482 807.793 315.309L808.293 316.329ZM820.472 317.069C819.432 317.069 818.499 316.842 817.672 316.389C816.859 315.935 816.219 315.302 815.752 314.489C815.286 313.662 815.052 312.735 815.052 311.709C815.052 310.682 815.286 309.762 815.752 308.949C816.219 308.135 816.859 307.502 817.672 307.049C818.499 306.595 819.432 306.369 820.472 306.369C821.379 306.369 822.186 306.549 822.892 306.909C823.612 307.255 824.179 307.769 824.592 308.449L823.532 309.169C823.186 308.649 822.746 308.262 822.212 308.009C821.679 307.742 821.099 307.609 820.472 307.609C819.712 307.609 819.026 307.782 818.412 308.129C817.812 308.462 817.339 308.942 816.992 309.569C816.659 310.195 816.492 310.909 816.492 311.709C816.492 312.522 816.659 313.242 816.992 313.869C817.339 314.482 817.812 314.962 818.412 315.309C819.026 315.642 819.712 315.809 820.472 315.809C821.099 315.809 821.679 315.682 822.212 315.429C822.746 315.175 823.186 314.789 823.532 314.269L824.592 314.989C824.179 315.669 823.612 316.189 822.892 316.549C822.172 316.895 821.366 317.069 820.472 317.069ZM832.586 306.369C833.906 306.369 834.952 306.755 835.726 307.529C836.512 308.289 836.906 309.402 836.906 310.869V316.969H835.486V311.009C835.486 309.915 835.212 309.082 834.666 308.509C834.119 307.935 833.339 307.649 832.326 307.649C831.192 307.649 830.292 307.989 829.626 308.669C828.972 309.335 828.646 310.262 828.646 311.449V316.969H827.226V302.129H828.646V308.289C829.032 307.675 829.566 307.202 830.246 306.869C830.926 306.535 831.706 306.369 832.586 306.369ZM845.1 317.069C844.086 317.069 843.173 316.842 842.36 316.389C841.546 315.922 840.906 315.282 840.44 314.469C839.973 313.655 839.74 312.735 839.74 311.709C839.74 310.682 839.973 309.762 840.44 308.949C840.906 308.135 841.546 307.502 842.36 307.049C843.173 306.595 844.086 306.369 845.1 306.369C846.113 306.369 847.026 306.595 847.84 307.049C848.653 307.502 849.286 308.135 849.74 308.949C850.206 309.762 850.44 310.682 850.44 311.709C850.44 312.735 850.206 313.655 849.74 314.469C849.286 315.282 848.653 315.922 847.84 316.389C847.026 316.842 846.113 317.069 845.1 317.069ZM845.1 315.809C845.846 315.809 846.513 315.642 847.1 315.309C847.7 314.962 848.166 314.475 848.5 313.849C848.833 313.222 849 312.509 849 311.709C849 310.909 848.833 310.195 848.5 309.569C848.166 308.942 847.7 308.462 847.1 308.129C846.513 307.782 845.846 307.609 845.1 307.609C844.353 307.609 843.68 307.782 843.08 308.129C842.493 308.462 842.026 308.942 841.68 309.569C841.346 310.195 841.18 310.909 841.18 311.709C841.18 312.509 841.346 313.222 841.68 313.849C842.026 314.475 842.493 314.962 843.08 315.309C843.68 315.642 844.353 315.809 845.1 315.809ZM853.339 306.449H854.759V316.969H853.339V306.449ZM854.059 304.149C853.766 304.149 853.519 304.049 853.319 303.849C853.119 303.649 853.019 303.409 853.019 303.129C853.019 302.862 853.119 302.629 853.319 302.429C853.519 302.229 853.766 302.129 854.059 302.129C854.352 302.129 854.599 302.229 854.799 302.429C854.999 302.615 855.099 302.842 855.099 303.109C855.099 303.402 854.999 303.649 854.799 303.849C854.599 304.049 854.352 304.149 854.059 304.149ZM863.07 317.069C862.03 317.069 861.097 316.842 860.27 316.389C859.457 315.935 858.817 315.302 858.35 314.489C857.883 313.662 857.65 312.735 857.65 311.709C857.65 310.682 857.883 309.762 858.35 308.949C858.817 308.135 859.457 307.502 860.27 307.049C861.097 306.595 862.03 306.369 863.07 306.369C863.977 306.369 864.783 306.549 865.49 306.909C866.21 307.255 866.777 307.769 867.19 308.449L866.13 309.169C865.783 308.649 865.343 308.262 864.81 308.009C864.277 307.742 863.697 307.609 863.07 307.609C862.31 307.609 861.623 307.782 861.01 308.129C860.41 308.462 859.937 308.942 859.59 309.569C859.257 310.195 859.09 310.909 859.09 311.709C859.09 312.522 859.257 313.242 859.59 313.869C859.937 314.482 860.41 314.962 861.01 315.309C861.623 315.642 862.31 315.809 863.07 315.809C863.697 315.809 864.277 315.682 864.81 315.429C865.343 315.175 865.783 314.789 866.13 314.269L867.19 314.989C866.777 315.669 866.21 316.189 865.49 316.549C864.77 316.895 863.963 317.069 863.07 317.069ZM878.964 312.149H870.164C870.244 313.242 870.664 314.129 871.424 314.809C872.184 315.475 873.144 315.809 874.304 315.809C874.957 315.809 875.557 315.695 876.104 315.469C876.65 315.229 877.124 314.882 877.524 314.429L878.324 315.349C877.857 315.909 877.27 316.335 876.564 316.629C875.87 316.922 875.104 317.069 874.264 317.069C873.184 317.069 872.224 316.842 871.384 316.389C870.557 315.922 869.91 315.282 869.444 314.469C868.977 313.655 868.744 312.735 868.744 311.709C868.744 310.682 868.964 309.762 869.404 308.949C869.857 308.135 870.47 307.502 871.244 307.049C872.03 306.595 872.91 306.369 873.884 306.369C874.857 306.369 875.73 306.595 876.504 307.049C877.277 307.502 877.884 308.135 878.324 308.949C878.764 309.749 878.984 310.669 878.984 311.709L878.964 312.149ZM873.884 307.589C872.87 307.589 872.017 307.915 871.324 308.569C870.644 309.209 870.257 310.049 870.164 311.089H877.624C877.53 310.049 877.137 309.209 876.444 308.569C875.764 307.915 874.91 307.589 873.884 307.589Z" fill="black"/>
<path d="M23.3643 61.6201V75.6201H21.9243V62.9001H18.6243V61.6201H23.3643Z" fill="black"/>
<path d="M150.006 53.7512V55.0312H140.186V54.0112L146.006 48.3112C146.739 47.5912 147.232 46.9712 147.486 46.4512C147.752 45.9179 147.886 45.3846 147.886 44.8512C147.886 44.0246 147.599 43.3846 147.026 42.9312C146.466 42.4646 145.659 42.2312 144.606 42.2312C142.966 42.2312 141.692 42.7512 140.786 43.7912L139.766 42.9112C140.312 42.2712 141.006 41.7779 141.846 41.4312C142.699 41.0846 143.659 40.9112 144.726 40.9112C146.152 40.9112 147.279 41.2512 148.106 41.9312C148.946 42.5979 149.366 43.5179 149.366 44.6912C149.366 45.4112 149.206 46.1046 148.886 46.7712C148.566 47.4379 147.959 48.2046 147.066 49.0712L142.306 53.7512H150.006Z" fill="black"/>
<path d="M304.771 31.5894C306.238 31.6694 307.351 32.0694 308.111 32.7894C308.885 33.496 309.271 34.4227 309.271 35.5694C309.271 36.3694 309.078 37.0827 308.691 37.7094C308.305 38.3227 307.731 38.8094 306.971 39.1694C306.211 39.5294 305.285 39.7094 304.191 39.7094C303.178 39.7094 302.218 39.5494 301.311 39.2294C300.418 38.896 299.698 38.456 299.151 37.9094L299.851 36.7694C300.318 37.2494 300.938 37.6427 301.711 37.9494C302.485 38.2427 303.311 38.3894 304.191 38.3894C305.338 38.3894 306.225 38.1427 306.851 37.6494C307.478 37.1427 307.791 36.4494 307.791 35.5694C307.791 34.7027 307.478 34.0227 306.851 33.5294C306.225 33.036 305.278 32.7894 304.011 32.7894H303.011V31.7294L306.891 26.8694H299.731V25.5894H308.731V26.6094L304.771 31.5894Z" fill="black"/>
<path d="M543.539 15.32H540.739V19H539.299V15.32H531.399V14.28L538.819 5H540.419L533.259 14.04H539.339V10.8H540.739V14.04H543.539V15.32Z" fill="black"/>
<path d="M854.95 15.32H852.15V19H850.71V15.32H842.81V14.28L850.23 5H851.83L844.67 14.04H850.75V10.8H852.15V14.04H854.95V15.32Z" fill="black"/>
<path d="M1079.44 31.5894C1080.9 31.6694 1082.02 32.0694 1082.78 32.7894C1083.55 33.496 1083.94 34.4227 1083.94 35.5694C1083.94 36.3694 1083.74 37.0827 1083.36 37.7094C1082.97 38.3227 1082.4 38.8094 1081.64 39.1694C1080.88 39.5294 1079.95 39.7094 1078.86 39.7094C1077.84 39.7094 1076.88 39.5494 1075.98 39.2294C1075.08 38.896 1074.36 38.456 1073.82 37.9094L1074.52 36.7694C1074.98 37.2494 1075.6 37.6427 1076.38 37.9494C1077.15 38.2427 1077.98 38.3894 1078.86 38.3894C1080 38.3894 1080.89 38.1427 1081.52 37.6494C1082.14 37.1427 1082.46 36.4494 1082.46 35.5694C1082.46 34.7027 1082.14 34.0227 1081.52 33.5294C1080.89 33.036 1079.94 32.7894 1078.68 32.7894H1077.68V31.7294L1081.56 26.8694H1074.4V25.5894H1083.4V26.6094L1079.44 31.5894Z" fill="black"/>
<path d="M1243.8 53.7512V55.0312H1233.98V54.0112L1239.8 48.3112C1240.54 47.5912 1241.03 46.9712 1241.28 46.4512C1241.55 45.9179 1241.68 45.3846 1241.68 44.8512C1241.68 44.0246 1241.4 43.3846 1240.82 42.9312C1240.26 42.4646 1239.46 42.2312 1238.4 42.2312C1236.76 42.2312 1235.49 42.7512 1234.58 43.7912L1233.56 42.9112C1234.11 42.2712 1234.8 41.7779 1235.64 41.4312C1236.5 41.0846 1237.46 40.9112 1238.52 40.9112C1239.95 40.9112 1241.08 41.2512 1241.9 41.9312C1242.74 42.5979 1243.16 43.5179 1243.16 44.6912C1243.16 45.4112 1243 46.1046 1242.68 46.7712C1242.36 47.4379 1241.76 48.2046 1240.86 49.0712L1236.1 53.7512H1243.8Z" fill="black"/>
<path d="M1351.36 61.6201V75.6201H1349.92V62.9001H1346.62V61.6201H1351.36Z" fill="black"/>
<defs>
<filter id="filter0_d_2445_12299" x="244.499" y="58.1938" width="120.506" height="183.582" filterUnits="userSpaceOnUse" color-interpolation-filters="sRGB">
<feFlood flood-opacity="0" result="BackgroundImageFix"/>
<feColorMatrix in="SourceAlpha" type="matrix" values="0 0 0 0 0 0 0 0 0 0 0 0 0 0 0 0 0 0 127 0" result="hardAlpha"/>
<feOffset dy="2"/>
<feGaussianBlur stdDeviation="1.5"/>
<feComposite in2="hardAlpha" operator="out"/>
<feColorMatrix type="matrix" values="0 0 0 0 0 0 0 0 0 0 0 0 0 0 0 0 0 0 0.25 0"/>
<feBlend mode="normal" in2="BackgroundImageFix" result="effect1_dropShadow_2445_12299"/>
<feBlend mode="normal" in="SourceGraphic" in2="effect1_dropShadow_2445_12299" result="shape"/>
</filter>
<filter id="filter1_d_2445_12299" x="419.506" y="32.4575" width="235.054" height="235.054" filterUnits="userSpaceOnUse" color-interpolation-filters="sRGB">
<feFlood flood-opacity="0" result="BackgroundImageFix"/>
<feColorMatrix in="SourceAlpha" type="matrix" values="0 0 0 0 0 0 0 0 0 0 0 0 0 0 0 0 0 0 127 0" result="hardAlpha"/>
<feOffset dy="2"/>
<feGaussianBlur stdDeviation="1.5"/>
<feComposite in2="hardAlpha" operator="out"/>
<feColorMatrix type="matrix" values="0 0 0 0 0 0 0 0 0 0 0 0 0 0 0 0 0 0 0.25 0"/>
<feBlend mode="normal" in2="BackgroundImageFix" result="effect1_dropShadow_2445_12299"/>
<feBlend mode="normal" in="SourceGraphic" in2="effect1_dropShadow_2445_12299" result="shape"/>
</filter>
<filter id="filter2_d_2445_12299" x="105.522" y="83.9302" width="82.4978" height="132.108" filterUnits="userSpaceOnUse" color-interpolation-filters="sRGB">
<feFlood flood-opacity="0" result="BackgroundImageFix"/>
<feColorMatrix in="SourceAlpha" type="matrix" values="0 0 0 0 0 0 0 0 0 0 0 0 0 0 0 0 0 0 127 0" result="hardAlpha"/>
<feOffset dy="2"/>
<feGaussianBlur stdDeviation="1.5"/>
<feComposite in2="hardAlpha" operator="out"/>
<feColorMatrix type="matrix" values="0 0 0 0 0 0 0 0 0 0 0 0 0 0 0 0 0 0 0.25 0"/>
<feBlend mode="normal" in2="BackgroundImageFix" result="effect1_dropShadow_2445_12299"/>
<feBlend mode="normal" in="SourceGraphic" in2="effect1_dropShadow_2445_12299" result="shape"/>
</filter>
<filter id="filter3_d_2445_12299" x="0.00256348" y="109.667" width="49.8477" height="80.6357" filterUnits="userSpaceOnUse" color-interpolation-filters="sRGB">
<feFlood flood-opacity="0" result="BackgroundImageFix"/>
<feColorMatrix in="SourceAlpha" type="matrix" values="0 0 0 0 0 0 0 0 0 0 0 0 0 0 0 0 0 0 127 0" result="hardAlpha"/>
<feOffset dy="2"/>
<feGaussianBlur stdDeviation="1.5"/>
<feComposite in2="hardAlpha" operator="out"/>
<feColorMatrix type="matrix" values="0 0 0 0 0 0 0 0 0 0 0 0 0 0 0 0 0 0 0.25 0"/>
<feBlend mode="normal" in2="BackgroundImageFix" result="effect1_dropShadow_2445_12299"/>
<feBlend mode="normal" in="SourceGraphic" in2="effect1_dropShadow_2445_12299" result="shape"/>
</filter>
<filter id="filter4_d_2445_12299" x="1020.47" y="58.1938" width="120.506" height="183.582" filterUnits="userSpaceOnUse" color-interpolation-filters="sRGB">
<feFlood flood-opacity="0" result="BackgroundImageFix"/>
<feColorMatrix in="SourceAlpha" type="matrix" values="0 0 0 0 0 0 0 0 0 0 0 0 0 0 0 0 0 0 127 0" result="hardAlpha"/>
<feOffset dy="2"/>
<feGaussianBlur stdDeviation="1.5"/>
<feComposite in2="hardAlpha" operator="out"/>
<feColorMatrix type="matrix" values="0 0 0 0 0 0 0 0 0 0 0 0 0 0 0 0 0 0 0.25 0"/>
<feBlend mode="normal" in2="BackgroundImageFix" result="effect1_dropShadow_2445_12299"/>
<feBlend mode="normal" in="SourceGraphic" in2="effect1_dropShadow_2445_12299" result="shape"/>
</filter>
<filter id="filter5_d_2445_12299" x="730.917" y="32.4575" width="235.054" height="235.054" filterUnits="userSpaceOnUse" color-interpolation-filters="sRGB">
<feFlood flood-opacity="0" result="BackgroundImageFix"/>
<feColorMatrix in="SourceAlpha" type="matrix" values="0 0 0 0 0 0 0 0 0 0 0 0 0 0 0 0 0 0 127 0" result="hardAlpha"/>
<feOffset dy="2"/>
<feGaussianBlur stdDeviation="1.5"/>
<feComposite in2="hardAlpha" operator="out"/>
<feColorMatrix type="matrix" values="0 0 0 0 0 0 0 0 0 0 0 0 0 0 0 0 0 0 0.25 0"/>
<feBlend mode="normal" in2="BackgroundImageFix" result="effect1_dropShadow_2445_12299"/>
<feBlend mode="normal" in="SourceGraphic" in2="effect1_dropShadow_2445_12299" result="shape"/>
</filter>
<filter id="filter6_d_2445_12299" x="1197.46" y="83.9302" width="82.4978" height="132.108" filterUnits="userSpaceOnUse" color-interpolation-filters="sRGB">
<feFlood flood-opacity="0" result="BackgroundImageFix"/>
<feColorMatrix in="SourceAlpha" type="matrix" values="0 0 0 0 0 0 0 0 0 0 0 0 0 0 0 0 0 0 127 0" result="hardAlpha"/>
<feOffset dy="2"/>
<feGaussianBlur stdDeviation="1.5"/>
<feComposite in2="hardAlpha" operator="out"/>
<feColorMatrix type="matrix" values="0 0 0 0 0 0 0 0 0 0 0 0 0 0 0 0 0 0 0.25 0"/>
<feBlend mode="normal" in2="BackgroundImageFix" result="effect1_dropShadow_2445_12299"/>
<feBlend mode="normal" in="SourceGraphic" in2="effect1_dropShadow_2445_12299" result="shape"/>
</filter>
<filter id="filter7_d_2445_12299" x="1335.63" y="109.667" width="49.8477" height="80.6357" filterUnits="userSpaceOnUse" color-interpolation-filters="sRGB">
<feFlood flood-opacity="0" result="BackgroundImageFix"/>
<feColorMatrix in="SourceAlpha" type="matrix" values="0 0 0 0 0 0 0 0 0 0 0 0 0 0 0 0 0 0 127 0" result="hardAlpha"/>
<feOffset dy="2"/>
<feGaussianBlur stdDeviation="1.5"/>
<feComposite in2="hardAlpha" operator="out"/>
<feColorMatrix type="matrix" values="0 0 0 0 0 0 0 0 0 0 0 0 0 0 0 0 0 0 0.25 0"/>
<feBlend mode="normal" in2="BackgroundImageFix" result="effect1_dropShadow_2445_12299"/>
<feBlend mode="normal" in="SourceGraphic" in2="effect1_dropShadow_2445_12299" result="shape"/>
</filter>
</defs>
</svg>
